<?xml version="1.0" standalone="no"?>
<!DOCTYPE svg PUBLIC "-//W3C//DTD SVG 1.1//EN" "http://www.w3.org/Graphics/SVG/1.1/DTD/svg11.dtd" >
<svg xmlns="http://www.w3.org/2000/svg" xmlns:xlink="http://www.w3.org/1999/xlink" version="1.1">
<metadata>
Created by FontForge 20170910 at Sat Feb 13 19:58:03 2010
 By Jimmy Wärting
Copyright (c) 2008 by Mrio Feliciano. All rights reserved.
</metadata>
<defs>
<font id="FlamaCondensed-Light" horiz-adv-x="395" >
  <font-face 
    font-family="Flama Condensed Light"
    font-weight="500"
    font-stretch="normal"
    units-per-em="1000"
    panose-1="2 0 0 0 0 0 0 0 0 0"
    ascent="800"
    descent="-200"
    x-height="518"
    cap-height="713"
    bbox="-113 -205 1000 973"
    underline-thickness="50"
    underline-position="-100"
    stemh="6"
    stemv="40"
    unicode-range="U+0020-FB02"
  />
<missing-glyph horiz-adv-x="946" 
d="M235 118l-40 40l185 185l-185 185l40 40l185 -185l185 185l40 -40l-185 -185l185 -185l-40 -40l-185 185zM55 -18v716h712v-716h-712zM115 42h592v596h-592v-596z" />
    <glyph glyph-name="fi" unicode="fi" horiz-adv-x="379" 
d="M274 0v518h50v-518h-50zM274 619v98h50v-98h-50zM85 0v476h-54v41h54v114c0 53 34 91 89 91c12 0 26 0 40 -5v-40c-11 2 -23 3 -35 3c-24 0 -44 -16 -44 -49v-114h69v-41h-69v-476h-50z" />
    <glyph glyph-name="fl" unicode="fl" horiz-adv-x="412" 
d="M343 -5c-48 0 -70 27 -70 71v647h50v-637c0 -20 11 -35 36 -35c9 0 18 1 27 3v-42c-15 -5 -29 -7 -43 -7zM85 0v476h-54v41h54v114c0 53 34 91 89 91c12 0 26 0 40 -5v-40c-11 2 -23 3 -35 3c-24 0 -44 -16 -44 -49v-114h69v-41h-69v-476h-50z" />
    <glyph glyph-name=".notdef" horiz-adv-x="946" 
d="M235 118l-40 40l185 185l-185 185l40 40l185 -185l185 185l40 -40l-185 -185l185 -185l-40 -40l-185 185zM55 -18v716h712v-716h-712zM115 42h592v596h-592v-596z" />
    <glyph glyph-name="space" unicode=" " horiz-adv-x="140" 
 />
    <glyph glyph-name="nbspace" unicode="&#xa0;" horiz-adv-x="140" 
 />
    <glyph glyph-name="A" unicode="A" horiz-adv-x="424" 
d="M32 0l146 715h69l145 -715h-53l-47 239h-164l-46 -239h-50zM137 284h146l-71 369h-3z" />
    <glyph glyph-name="B" unicode="B" horiz-adv-x="401" 
d="M66 0v713h142c99 0 137 -70 137 -176c0 -87 -35 -155 -96 -165v-4c77 -15 102 -88 102 -172c0 -145 -57 -196 -138 -196h-147zM118 45h87c60 0 93 52 93 154c0 104 -46 147 -108 147h-72v-301zM118 388h71c58 0 105 43 105 144c0 95 -37 136 -91 136h-85v-280z" />
    <glyph glyph-name="C" unicode="C" horiz-adv-x="407" 
d="M213 -9c-98 0 -159 54 -159 147v433c0 90 58 153 158 153c96 0 147 -61 147 -132v-82h-47v70c0 58 -32 99 -101 99c-77 0 -104 -51 -104 -111v-420c0 -74 41 -110 106 -110c67 0 99 44 99 97v72h47v-75c0 -82 -54 -141 -146 -141z" />
    <glyph glyph-name="D" unicode="D" horiz-adv-x="421" 
d="M66 0v713h150c86 0 151 -44 151 -139v-422c0 -102 -65 -152 -154 -152h-147zM118 47h92c78 0 103 57 103 103v418c0 54 -31 99 -102 99h-93v-620z" />
    <glyph glyph-name="E" unicode="E" horiz-adv-x="359" 
d="M66 0v713h252v-45h-200v-269h161v-46h-161v-306h201v-47h-253z" />
    <glyph glyph-name="F" unicode="F" horiz-adv-x="347" 
d="M66 0v713h251v-45h-199v-270h159v-47h-159v-351h-52z" />
    <glyph glyph-name="G" unicode="G" horiz-adv-x="414" 
d="M213 -9c-98 0 -159 54 -159 147v432c0 90 58 155 158 155c96 0 147 -62 147 -133v-80h-48v71c0 57 -35 97 -100 97c-77 0 -104 -54 -104 -115v-419c0 -68 38 -108 105 -108c77 0 101 46 101 99v191h-104v45h153v-241c0 -81 -54 -141 -149 -141z" />
    <glyph glyph-name="H" unicode="H" horiz-adv-x="441" 
d="M66 0v713h53v-320h204v320h52v-713h-52v343h-204v-343h-53z" />
    <glyph glyph-name="I" unicode="I" horiz-adv-x="185" 
d="M66 0v713h53v-713h-53z" />
    <glyph glyph-name="J" unicode="J" horiz-adv-x="391" 
d="M185 -10c-92 0 -141 55 -141 142v128h51v-122c0 -51 19 -101 92 -101c69 0 90 48 90 100v576h52v-573c0 -87 -48 -150 -144 -150z" />
    <glyph glyph-name="K" unicode="K" horiz-adv-x="404" 
d="M66 0v713h53v-369l197 369h55l-144 -269l146 -444h-57l-127 388l-70 -129v-259h-53z" />
    <glyph glyph-name="L" unicode="L" horiz-adv-x="344" 
d="M66 0v713h52v-666h201v-47h-253z" />
    <glyph glyph-name="M" unicode="M" horiz-adv-x="499" 
d="M66 0v713h59l124 -320h2l124 320h58v-713h-49v598h-2l-116 -292h-36l-114 291h-2v-597h-48z" />
    <glyph glyph-name="N" unicode="N" horiz-adv-x="440" 
d="M66 0v713h61l199 -565h2v565h46v-713h-51l-208 607h-2v-607h-47z" />
    <glyph glyph-name="O" unicode="O" horiz-adv-x="424" 
d="M210 -9c-94 0 -156 53 -156 157v419c0 102 68 157 160 157c88 0 156 -47 156 -146v-425c0 -108 -67 -162 -160 -162zM213 39c74 0 104 52 104 109v428c0 60 -37 102 -106 102c-70 0 -103 -49 -103 -106v-425c0 -58 34 -108 105 -108z" />
    <glyph glyph-name="P" unicode="P" horiz-adv-x="399" 
d="M66 0v713h131c115 0 154 -88 154 -201c0 -126 -52 -210 -162 -210h-70v-302h-53zM119 348h67c78 0 113 59 113 164c0 84 -25 153 -106 153h-74v-317z" />
    <glyph glyph-name="Q" unicode="Q" horiz-adv-x="424" 
d="M362 -70l-98 70c-15 -6 -34 -9 -54 -9c-94 0 -156 53 -156 157v419c0 102 68 157 160 157c88 0 156 -47 156 -146v-425c0 -58 -22 -101 -58 -124l83 -56zM213 39c74 0 104 52 104 109v428c0 60 -37 102 -106 102c-70 0 -103 -49 -103 -106v-425c0 -58 34 -108 105 -108z
" />
    <glyph glyph-name="R" unicode="R" horiz-adv-x="408" 
d="M66 0v713h132c110 0 157 -75 157 -191c0 -100 -39 -169 -101 -184l108 -338h-54l-105 325h-84v-325h-53zM119 368h82c69 0 100 57 100 147c0 72 -21 151 -104 151h-78v-298z" />
    <glyph glyph-name="S" unicode="S" horiz-adv-x="366" 
d="M187 -9c-87 0 -140 56 -148 164l51 2c7 -76 37 -123 97 -123c69 0 91 61 91 116c0 49 -21 104 -60 149l-92 110c-45 52 -75 108 -75 167c0 84 46 148 137 148c74 0 126 -41 133 -150l-49 -1c-9 77 -38 107 -87 107c-52 0 -85 -31 -85 -100c0 -48 30 -92 69 -139l79 -94
c51 -61 79 -120 79 -192c0 -98 -49 -164 -140 -164z" />
    <glyph glyph-name="T" unicode="T" horiz-adv-x="373" 
d="M161 0v667h-137v46h325v-46h-136v-667h-52z" />
    <glyph glyph-name="U" unicode="U" horiz-adv-x="429" 
d="M213 -10c-85 0 -151 48 -151 150v573h53v-563c0 -79 47 -112 102 -112c71 0 101 48 99 110v565h50v-566c1 -95 -58 -157 -153 -157z" />
    <glyph glyph-name="V" unicode="V" horiz-adv-x="375" 
d="M162 -6l-137 719h54l109 -603h2l111 603h49l-134 -719h-54z" />
    <glyph glyph-name="W" unicode="W" horiz-adv-x="542" 
d="M132 -6l-98 719h53l71 -569h2l86 569h56l86 -568h2l69 568h49l-94 -719h-50l-91 591h-2l-89 -591h-50z" />
    <glyph glyph-name="X" unicode="X" horiz-adv-x="367" 
d="M25 0l129 362l-122 351h56l98 -288l98 288h49l-122 -347l131 -366h-55l-106 302l-105 -302h-51z" />
    <glyph glyph-name="Y" unicode="Y" horiz-adv-x="356" 
d="M153 0v315l-131 399h54l106 -329l102 329h50l-129 -401v-313h-52z" />
    <glyph glyph-name="Z" unicode="Z" horiz-adv-x="326" 
d="M33 0v42l202 625h-195v46h254v-35l-203 -631h201v-47h-259z" />
    <glyph glyph-name="Agrave" unicode="&#xc0;" horiz-adv-x="424" 
d="M32 0l146 715h69l145 -715h-53l-47 239h-164l-46 -239h-50zM137 284h146l-71 369h-3zM194 773l-87 139h60l69 -139h-42z" />
    <glyph glyph-name="Aacute" unicode="&#xc1;" horiz-adv-x="424" 
d="M32 0l146 715h69l145 -715h-53l-47 239h-164l-46 -239h-50zM137 284h146l-71 369h-3zM196 773l69 139h60l-87 -139h-42z" />
    <glyph glyph-name="Acircumflex" unicode="&#xc2;" horiz-adv-x="424" 
d="M32 0l146 715h69l145 -715h-53l-47 239h-164l-46 -239h-50zM137 284h146l-71 369h-3zM123 774l70 139h40l68 -139h-47l-43 93l-43 -93h-45z" />
    <glyph glyph-name="Atilde" unicode="&#xc3;" horiz-adv-x="424" 
d="M32 0l146 715h69l145 -715h-53l-47 239h-164l-46 -239h-50zM137 284h146l-71 369h-3zM129 784l-35 5c5 41 28 75 66 75c35 0 70 -28 104 -28c19 0 26 13 32 35l34 -7c-5 -41 -30 -74 -66 -74c-37 0 -76 29 -104 29c-20 0 -26 -12 -31 -35z" />
    <glyph glyph-name="Amacron" unicode="&#x100;" horiz-adv-x="424" 
d="M32 0l146 715h69l145 -715h-53l-47 239h-164l-46 -239h-50zM137 284h146l-71 369h-3zM124 792v46h176v-46h-176z" />
    <glyph glyph-name="Abreve" unicode="&#x102;" horiz-adv-x="424" 
d="M32 0l146 715h69l145 -715h-53l-47 239h-164l-46 -239h-50zM137 284h146l-71 369h-3zM212 778c-66 0 -102 42 -103 113h41c4 -37 14 -76 65 -76c42 0 60 33 60 76h40c-3 -77 -47 -113 -103 -113z" />
    <glyph glyph-name="Adieresis" unicode="&#xc4;" horiz-adv-x="424" 
d="M32 0l146 715h69l145 -715h-53l-47 239h-164l-46 -239h-50zM137 284h146l-71 369h-3zM130 791v109h48v-109h-48zM246 791v109h48v-109h-48z" />
    <glyph glyph-name="Aring" unicode="&#xc5;" horiz-adv-x="424" 
d="M32 0l146 715h69l145 -715h-53l-47 239h-164l-46 -239h-50zM137 284h146l-71 369h-3zM212 753c-50 0 -75 36 -75 74c0 43 30 79 75 79c49 0 75 -33 75 -74c0 -45 -31 -79 -75 -79zM212 782c26 0 43 18 43 47c0 27 -14 48 -44 48c-27 0 -40 -20 -40 -49
c0 -30 17 -46 41 -46z" />
    <glyph glyph-name="Aringacute" unicode="&#x1fa;" horiz-adv-x="424" 
d="M32 0l146 715h69l145 -715h-53l-47 239h-164l-46 -239h-50zM137 284h146l-71 369h-3zM212 753c-52 0 -75 37 -75 73c0 19 7 38 17 53l64 94l52 -8l-55 -62c49 -2 72 -34 72 -72c0 -44 -31 -78 -75 -78zM212 781c25 0 43 18 43 48c0 26 -14 47 -43 47
c-27 0 -41 -20 -41 -49c0 -30 17 -46 41 -46z" />
    <glyph glyph-name="Aogonek" unicode="&#x104;" horiz-adv-x="424" 
d="M370 -179c-41 0 -77 24 -77 74c0 46 22 81 48 105h-2l-47 239h-164l-46 -239h-50l146 715h69l145 -715h-9c-30 -21 -47 -49 -47 -87c0 -30 18 -48 43 -48c15 0 27 4 37 9l16 -36c-13 -8 -31 -17 -62 -17zM137 284h146l-71 369h-3z" />
    <glyph glyph-name="AE" unicode="&#xc6;" horiz-adv-x="564" 
d="M22 0l216 714h285v-46h-200v-270h161v-46h-161v-305h201v-47h-252v245h-127l-70 -245h-53zM159 289h113v378h-2z" />
    <glyph glyph-name="AEacute" unicode="&#x1fc;" horiz-adv-x="564" 
d="M22 0l216 714h285v-46h-200v-270h161v-46h-161v-305h201v-47h-252v245h-127l-70 -245h-53zM159 289h113v378h-2zM313 773l69 139h60l-87 -139h-42z" />
    <glyph glyph-name="Cacute" unicode="&#x106;" horiz-adv-x="407" 
d="M213 -9c-98 0 -159 54 -159 147v433c0 90 58 153 158 153c96 0 147 -61 147 -132v-82h-47v70c0 58 -32 99 -101 99c-77 0 -104 -51 -104 -111v-420c0 -74 41 -110 106 -110c67 0 99 44 99 97v72h47v-75c0 -82 -54 -141 -146 -141zM188 773l69 139h60l-87 -139h-42z" />
    <glyph glyph-name="Ccircumflex" unicode="&#x108;" horiz-adv-x="407" 
d="M213 -9c-98 0 -159 54 -159 147v433c0 90 58 153 158 153c96 0 147 -61 147 -132v-82h-47v70c0 58 -32 99 -101 99c-77 0 -104 -51 -104 -111v-420c0 -74 41 -110 106 -110c67 0 99 44 99 97v72h47v-75c0 -82 -54 -141 -146 -141zM114 774l70 139h40l68 -139h-47l-43 93
l-43 -93h-45z" />
    <glyph glyph-name="Ccaron" unicode="&#x10c;" horiz-adv-x="407" 
d="M213 -9c-98 0 -159 54 -159 147v433c0 90 58 153 158 153c96 0 147 -61 147 -132v-82h-47v70c0 58 -32 99 -101 99c-77 0 -104 -51 -104 -111v-420c0 -74 41 -110 106 -110c67 0 99 44 99 97v72h47v-75c0 -82 -54 -141 -146 -141zM182 774l-68 140h47l43 -93l43 93h45
l-70 -140h-40z" />
    <glyph glyph-name="Cdotaccent" unicode="&#x10a;" horiz-adv-x="407" 
d="M213 -9c-98 0 -159 54 -159 147v433c0 90 58 153 158 153c96 0 147 -61 147 -132v-82h-47v70c0 58 -32 99 -101 99c-77 0 -104 -51 -104 -111v-420c0 -74 41 -110 106 -110c67 0 99 44 99 97v72h47v-75c0 -82 -54 -141 -146 -141zM189 791v111h49v-111h-49z" />
    <glyph glyph-name="Ccedilla" unicode="&#xc7;" horiz-adv-x="407" 
d="M208 -179c-17 0 -42 2 -65 9v39c22 -5 40 -8 62 -8c25 0 42 7 42 27c0 19 -17 27 -49 29l-24 2l17 73c-85 8 -137 60 -137 146v433c0 90 58 153 158 153c96 0 147 -61 147 -132v-82h-47v70c0 58 -32 99 -101 99c-77 0 -104 -51 -104 -111v-420c0 -74 41 -110 106 -110
c67 0 99 44 99 97v72h47v-75c0 -79 -50 -137 -137 -141l-10 -45c40 -2 81 -15 81 -58c0 -39 -37 -67 -85 -67z" />
    <glyph glyph-name="Dcaron" unicode="&#x10e;" horiz-adv-x="421" 
d="M66 0v713h150c86 0 151 -44 151 -139v-422c0 -102 -65 -152 -154 -152h-147zM118 47h92c78 0 103 57 103 103v418c0 54 -31 99 -102 99h-93v-620zM180 774l-68 140h47l43 -93l43 93h45l-70 -140h-40z" />
    <glyph glyph-name="Dcroat" unicode="&#x110;" horiz-adv-x="426" 
d="M23 353v44h48v316h150c86 0 151 -44 151 -139v-422c0 -102 -65 -152 -154 -152h-147v353h-48zM123 47h92c78 0 103 57 103 103v418c0 54 -31 99 -102 99h-93v-270h131v-44h-131v-306z" />
    <glyph glyph-name="Egrave" unicode="&#xc8;" horiz-adv-x="359" 
d="M66 0v713h252v-45h-200v-269h161v-46h-161v-306h201v-47h-253zM185 773l-87 139h60l69 -139h-42z" />
    <glyph glyph-name="Eacute" unicode="&#xc9;" horiz-adv-x="359" 
d="M66 0v713h252v-45h-200v-269h161v-46h-161v-306h201v-47h-253zM171 773l69 139h60l-87 -139h-42z" />
    <glyph glyph-name="Ecircumflex" unicode="&#xca;" horiz-adv-x="359" 
d="M66 0v713h252v-45h-200v-269h161v-46h-161v-306h201v-47h-253zM90 774l70 139h40l68 -139h-47l-43 93l-43 -93h-45z" />
    <glyph glyph-name="Emacron" unicode="&#x112;" horiz-adv-x="359" 
d="M66 0v713h252v-45h-200v-269h161v-46h-161v-306h201v-47h-253zM108 792v46h176v-46h-176z" />
    <glyph glyph-name="Ebreve" unicode="&#x114;" horiz-adv-x="359" 
d="M66 0v713h252v-45h-200v-269h161v-46h-161v-306h201v-47h-253zM197 778c-66 0 -102 42 -103 113h41c4 -37 14 -76 65 -76c42 0 60 33 60 76h40c-3 -77 -47 -113 -103 -113z" />
    <glyph glyph-name="Edotaccent" unicode="&#x116;" horiz-adv-x="359" 
d="M66 0v713h252v-45h-200v-269h161v-46h-161v-306h201v-47h-253zM155 791v111h49v-111h-49z" />
    <glyph glyph-name="Edieresis" unicode="&#xcb;" horiz-adv-x="359" 
d="M66 0v713h252v-45h-200v-269h161v-46h-161v-306h201v-47h-253zM115 791v109h48v-109h-48zM231 791v109h48v-109h-48z" />
    <glyph glyph-name="Ecaron" unicode="&#x11a;" horiz-adv-x="359" 
d="M66 0v713h252v-45h-200v-269h161v-46h-161v-306h201v-47h-253zM158 774l-68 140h47l43 -93l43 93h45l-70 -140h-40z" />
    <glyph glyph-name="Eogonek" unicode="&#x118;" horiz-adv-x="359" 
d="M66 0v713h252v-45h-200v-269h161v-46h-161v-306h201v-47h-5c-30 -21 -47 -49 -47 -87c0 -30 18 -48 43 -48c15 0 27 4 37 9l16 -36c-13 -8 -31 -17 -62 -17c-41 0 -77 24 -77 74c0 46 22 81 48 105h-206z" />
    <glyph glyph-name="Gcircumflex" unicode="&#x11c;" horiz-adv-x="414" 
d="M213 -9c-98 0 -159 54 -159 147v432c0 90 58 155 158 155c96 0 147 -62 147 -133v-80h-48v71c0 57 -35 97 -100 97c-77 0 -104 -54 -104 -115v-419c0 -68 38 -108 105 -108c77 0 101 46 101 99v191h-104v45h153v-241c0 -81 -54 -141 -149 -141zM118 774l70 139h40
l68 -139h-47l-43 93l-43 -93h-45z" />
    <glyph glyph-name="Gbreve" unicode="&#x11e;" horiz-adv-x="414" 
d="M213 -9c-98 0 -159 54 -159 147v432c0 90 58 155 158 155c96 0 147 -62 147 -133v-80h-48v71c0 57 -35 97 -100 97c-77 0 -104 -54 -104 -115v-419c0 -68 38 -108 105 -108c77 0 101 46 101 99v191h-104v45h153v-241c0 -81 -54 -141 -149 -141zM207 778
c-66 0 -102 42 -103 113h41c4 -37 14 -76 65 -76c42 0 60 33 60 76h40c-3 -77 -47 -113 -103 -113z" />
    <glyph glyph-name="Gdotaccent" unicode="&#x120;" horiz-adv-x="414" 
d="M213 -9c-98 0 -159 54 -159 147v432c0 90 58 155 158 155c96 0 147 -62 147 -133v-80h-48v71c0 57 -35 97 -100 97c-77 0 -104 -54 -104 -115v-419c0 -68 38 -108 105 -108c77 0 101 46 101 99v191h-104v45h153v-241c0 -81 -54 -141 -149 -141zM182 791v111h49v-111h-49z
" />
    <glyph glyph-name="Gcommaaccent" unicode="&#x122;" horiz-adv-x="414" 
d="M213 -9c-98 0 -159 54 -159 147v432c0 90 58 155 158 155c96 0 147 -62 147 -133v-80h-48v71c0 57 -35 97 -100 97c-77 0 -104 -54 -104 -115v-419c0 -68 38 -108 105 -108c77 0 101 46 101 99v191h-104v45h153v-241c0 -81 -54 -141 -149 -141zM185 -172l2 133h54
l-19 -133h-37z" />
    <glyph glyph-name="Hcircumflex" unicode="&#x124;" horiz-adv-x="441" 
d="M66 0v713h53v-320h204v320h52v-713h-52v343h-204v-343h-53zM131 774l70 139h40l68 -139h-47l-43 93l-43 -93h-45z" />
    <glyph glyph-name="Hbar" unicode="&#x126;" horiz-adv-x="467" 
d="M25 564v42h54v107h53v-107h204v107h52v-107h54v-42h-54v-564h-52v343h-204v-343h-53v564h-54zM132 393h204v171h-204v-171z" />
    <glyph glyph-name="Igrave" unicode="&#xcc;" horiz-adv-x="185" 
d="M66 0v713h53v-713h-53zM74 773l-87 139h60l69 -139h-42z" />
    <glyph glyph-name="Iacute" unicode="&#xcd;" horiz-adv-x="185" 
d="M66 0v713h53v-713h-53zM72 773l69 139h60l-87 -139h-42z" />
    <glyph glyph-name="Icircumflex" unicode="&#xce;" horiz-adv-x="185" 
d="M66 0v713h53v-713h-53zM4 774l70 139h40l68 -139h-47l-43 93l-43 -93h-45z" />
    <glyph glyph-name="Idieresis" unicode="&#xcf;" horiz-adv-x="185" 
d="M66 0v713h53v-713h-53zM11 791v109h48v-109h-48zM127 791v109h48v-109h-48z" />
    <glyph glyph-name="Itilde" unicode="&#x128;" horiz-adv-x="185" 
d="M66 0v713h53v-713h-53zM10 784l-35 5c5 41 28 75 66 75c35 0 70 -28 104 -28c19 0 26 13 32 35l34 -7c-5 -41 -30 -74 -66 -74c-37 0 -76 29 -104 29c-20 0 -26 -12 -31 -35z" />
    <glyph glyph-name="Imacron" unicode="&#x12a;" horiz-adv-x="185" 
d="M66 0v713h53v-713h-53zM5 792v46h176v-46h-176z" />
    <glyph glyph-name="Ibreve" unicode="&#x12c;" horiz-adv-x="185" 
d="M66 0v713h53v-713h-53zM93 778c-66 0 -102 42 -103 113h41c4 -37 14 -76 65 -76c42 0 60 33 60 76h40c-3 -77 -47 -113 -103 -113z" />
    <glyph glyph-name="Idotaccent" unicode="&#x130;" horiz-adv-x="185" 
d="M66 0v713h53v-713h-53zM68 791v111h49v-111h-49z" />
    <glyph glyph-name="Iogonek" unicode="&#x12e;" horiz-adv-x="185" 
d="M66 0v713h53v-707h1c-1 0 -1 -1 -1 -1v-5h-8c-26 -21 -42 -51 -42 -87c0 -30 12 -48 37 -48c9 0 19 3 29 8l14 -36c-13 -8 -29 -15 -50 -15c-41 0 -73 23 -73 73c0 45 21 81 46 105h-6z" />
    <glyph glyph-name="Jcircumflex" unicode="&#x134;" horiz-adv-x="391" 
d="M185 -10c-92 0 -141 55 -141 142v128h51v-122c0 -51 19 -101 92 -101c69 0 90 48 90 100v576h52v-573c0 -87 -48 -150 -144 -150zM193 774l70 139h40l68 -139h-47l-43 93l-43 -93h-45z" />
    <glyph glyph-name="Kcommaaccent" unicode="&#x136;" horiz-adv-x="404" 
d="M66 0v713h53v-369l197 369h55l-144 -269l146 -444h-57l-127 388l-70 -129v-259h-53zM184 -172l2 133h54l-19 -133h-37z" />
    <glyph glyph-name="Lacute" unicode="&#x139;" horiz-adv-x="344" 
d="M66 0v713h52v-666h201v-47h-253zM78 773l69 139h60l-87 -139h-42z" />
    <glyph glyph-name="Lcaron" unicode="&#x13d;" horiz-adv-x="344" 
d="M66 0v713h52v-666h201v-47h-253zM193 568l4 145h54l-23 -145h-35z" />
    <glyph glyph-name="Lcommaaccent" unicode="&#x13b;" horiz-adv-x="344" 
d="M66 0v713h52v-666h201v-47h-253zM176 -172l2 133h54l-19 -133h-37z" />
    <glyph glyph-name="Ldot" unicode="&#x13f;" horiz-adv-x="344" 
d="M66 0v713h52v-666h201v-47h-253zM212 337v101h50v-101h-50z" />
    <glyph glyph-name="Lslash" unicode="&#x141;" horiz-adv-x="357" 
d="M23 255v55l56 52v351h52v-302l115 109v-55l-115 -109v-309h201v-47h-253v307z" />
    <glyph glyph-name="Nacute" unicode="&#x143;" horiz-adv-x="440" 
d="M66 0v713h61l199 -565h2v565h46v-713h-51l-208 607h-2v-607h-47zM206 773l69 139h60l-87 -139h-42z" />
    <glyph glyph-name="Ntilde" unicode="&#xd1;" horiz-adv-x="440" 
d="M66 0v713h61l199 -565h2v565h46v-713h-51l-208 607h-2v-607h-47zM137 784l-35 5c5 41 28 75 66 75c35 0 70 -28 104 -28c19 0 26 13 32 35l34 -7c-5 -41 -30 -74 -66 -74c-37 0 -76 29 -104 29c-20 0 -26 -12 -31 -35z" />
    <glyph glyph-name="Ncaron" unicode="&#x147;" horiz-adv-x="440" 
d="M66 0v713h61l199 -565h2v565h46v-713h-51l-208 607h-2v-607h-47zM199 774l-68 140h47l43 -93l43 93h45l-70 -140h-40z" />
    <glyph glyph-name="Ncommaaccent" unicode="&#x145;" horiz-adv-x="440" 
d="M66 0v713h61l199 -565h2v565h46v-713h-51l-208 607h-2v-607h-47zM193 -172l2 133h54l-19 -133h-37z" />
    <glyph glyph-name="Ograve" unicode="&#xd2;" horiz-adv-x="424" 
d="M210 -9c-94 0 -156 53 -156 157v419c0 102 68 157 160 157c88 0 156 -47 156 -146v-425c0 -108 -67 -162 -160 -162zM213 39c74 0 104 52 104 109v428c0 60 -37 102 -106 102c-70 0 -103 -49 -103 -106v-425c0 -58 34 -108 105 -108zM193 773l-87 139h60l69 -139h-42z
" />
    <glyph glyph-name="Oacute" unicode="&#xd3;" horiz-adv-x="424" 
d="M210 -9c-94 0 -156 53 -156 157v419c0 102 68 157 160 157c88 0 156 -47 156 -146v-425c0 -108 -67 -162 -160 -162zM213 39c74 0 104 52 104 109v428c0 60 -37 102 -106 102c-70 0 -103 -49 -103 -106v-425c0 -58 34 -108 105 -108zM197 773l69 139h60l-87 -139h-42z
" />
    <glyph glyph-name="Ocircumflex" unicode="&#xd4;" horiz-adv-x="424" 
d="M210 -9c-94 0 -156 53 -156 157v419c0 102 68 157 160 157c88 0 156 -47 156 -146v-425c0 -108 -67 -162 -160 -162zM213 39c74 0 104 52 104 109v428c0 60 -37 102 -106 102c-70 0 -103 -49 -103 -106v-425c0 -58 34 -108 105 -108zM123 774l70 139h40l68 -139h-47
l-43 93l-43 -93h-45z" />
    <glyph glyph-name="Odieresis" unicode="&#xd6;" horiz-adv-x="424" 
d="M210 -9c-94 0 -156 53 -156 157v419c0 102 68 157 160 157c88 0 156 -47 156 -146v-425c0 -108 -67 -162 -160 -162zM213 39c74 0 104 52 104 109v428c0 60 -37 102 -106 102c-70 0 -103 -49 -103 -106v-425c0 -58 34 -108 105 -108zM130 791v109h48v-109h-48zM246 791
v109h48v-109h-48z" />
    <glyph glyph-name="Otilde" unicode="&#xd5;" horiz-adv-x="424" 
d="M210 -9c-94 0 -156 53 -156 157v419c0 102 68 157 160 157c88 0 156 -47 156 -146v-425c0 -108 -67 -162 -160 -162zM213 39c74 0 104 52 104 109v428c0 60 -37 102 -106 102c-70 0 -103 -49 -103 -106v-425c0 -58 34 -108 105 -108zM129 784l-35 5c5 41 28 75 66 75
c35 0 70 -28 104 -28c19 0 26 13 32 35l34 -7c-5 -41 -30 -74 -66 -74c-37 0 -76 29 -104 29c-20 0 -26 -12 -31 -35z" />
    <glyph glyph-name="Omacron" unicode="&#x14c;" horiz-adv-x="424" 
d="M210 -9c-94 0 -156 53 -156 157v419c0 102 68 157 160 157c88 0 156 -47 156 -146v-425c0 -108 -67 -162 -160 -162zM213 39c74 0 104 52 104 109v428c0 60 -37 102 -106 102c-70 0 -103 -49 -103 -106v-425c0 -58 34 -108 105 -108zM124 792v46h176v-46h-176z" />
    <glyph glyph-name="Obreve" unicode="&#x14e;" horiz-adv-x="424" 
d="M210 -9c-94 0 -156 53 -156 157v419c0 102 68 157 160 157c88 0 156 -47 156 -146v-425c0 -108 -67 -162 -160 -162zM213 39c74 0 104 52 104 109v428c0 60 -37 102 -106 102c-70 0 -103 -49 -103 -106v-425c0 -58 34 -108 105 -108zM212 778c-66 0 -102 42 -103 113h41
c4 -37 14 -76 65 -76c42 0 60 33 60 76h40c-3 -77 -47 -113 -103 -113z" />
    <glyph glyph-name="Ohungarumlaut" unicode="&#x150;" horiz-adv-x="424" 
d="M210 -9c-94 0 -156 53 -156 157v419c0 102 68 157 160 157c88 0 156 -47 156 -146v-425c0 -108 -67 -162 -160 -162zM213 39c74 0 104 52 104 109v428c0 60 -37 102 -106 102c-70 0 -103 -49 -103 -106v-425c0 -58 34 -108 105 -108zM110 777l47 124h54l-60 -124h-41z
M213 777l48 124h53l-60 -124h-41z" />
    <glyph glyph-name="Oslash" unicode="&#xd8;" horiz-adv-x="424" 
d="M103 -41l-40 10l24 72c-21 26 -33 61 -33 107v419c0 102 68 157 160 157c36 0 69 -8 95 -24l18 54l40 -9l-25 -75c18 -23 28 -54 28 -92v-425c0 -108 -67 -162 -160 -162c-35 0 -65 8 -89 21zM108 147c0 -11 1 -22 3 -33l180 534c-18 19 -45 30 -80 30
c-70 0 -103 -49 -103 -106v-425zM213 39c74 0 104 52 104 109v428c0 6 -1 11 -1 17l-177 -527c17 -17 42 -27 74 -27z" />
    <glyph glyph-name="Oslashacute" unicode="&#x1fe;" horiz-adv-x="424" 
d="M103 -41l-40 10l24 72c-21 26 -33 61 -33 107v419c0 102 68 157 160 157c36 0 69 -8 95 -24l18 54l40 -9l-25 -75c18 -23 28 -54 28 -92v-425c0 -108 -67 -162 -160 -162c-35 0 -65 8 -89 21zM108 147c0 -11 1 -22 3 -33l180 534c-18 19 -45 30 -80 30
c-70 0 -103 -49 -103 -106v-425zM213 39c74 0 104 52 104 109v428c0 6 -1 11 -1 17l-177 -527c17 -17 42 -27 74 -27zM197 773l69 139h60l-87 -139h-42z" />
    <glyph glyph-name="OE" unicode="&#x152;" horiz-adv-x="611" 
d="M204 -8c-94 0 -150 52 -150 156v420c0 102 65 157 156 157c46 0 86 -17 108 -50v38h251v-45h-199v-269h161v-47h-161v-305h201v-47h-253v49c-18 -31 -62 -57 -114 -57zM213 38c74 0 104 54 104 111v429c0 60 -37 100 -106 100c-70 0 -103 -49 -103 -106v-425
c0 -58 34 -109 105 -109z" />
    <glyph glyph-name="Racute" unicode="&#x154;" horiz-adv-x="408" 
d="M66 0v713h132c110 0 157 -75 157 -191c0 -100 -39 -169 -101 -184l108 -338h-54l-105 325h-84v-325h-53zM119 368h82c69 0 100 57 100 147c0 72 -21 151 -104 151h-78v-298zM148 773l69 139h60l-87 -139h-42z" />
    <glyph glyph-name="Rcaron" unicode="&#x158;" horiz-adv-x="408" 
d="M66 0v713h132c110 0 157 -75 157 -191c0 -100 -39 -169 -101 -184l108 -338h-54l-105 325h-84v-325h-53zM119 368h82c69 0 100 57 100 147c0 72 -21 151 -104 151h-78v-298zM183 774l-68 140h47l43 -93l43 93h45l-70 -140h-40z" />
    <glyph glyph-name="Rcommaaccent" unicode="&#x156;" horiz-adv-x="408" 
d="M66 0v713h132c110 0 157 -75 157 -191c0 -100 -39 -169 -101 -184l108 -338h-54l-105 325h-84v-325h-53zM119 368h82c69 0 100 57 100 147c0 72 -21 151 -104 151h-78v-298zM177 -172l2 133h54l-19 -133h-37z" />
    <glyph glyph-name="Sacute" unicode="&#x15a;" horiz-adv-x="366" 
d="M187 -9c-87 0 -140 56 -148 164l51 2c7 -76 37 -123 97 -123c69 0 91 61 91 116c0 49 -21 104 -60 149l-92 110c-45 52 -75 108 -75 167c0 84 46 148 137 148c74 0 126 -41 133 -150l-49 -1c-9 77 -38 107 -87 107c-52 0 -85 -31 -85 -100c0 -48 30 -92 69 -139l79 -94
c51 -61 79 -120 79 -192c0 -98 -49 -164 -140 -164zM166 773l69 139h60l-87 -139h-42z" />
    <glyph glyph-name="Scircumflex" unicode="&#x15c;" horiz-adv-x="366" 
d="M187 -9c-87 0 -140 56 -148 164l51 2c7 -76 37 -123 97 -123c69 0 91 61 91 116c0 49 -21 104 -60 149l-92 110c-45 52 -75 108 -75 167c0 84 46 148 137 148c74 0 126 -41 133 -150l-49 -1c-9 77 -38 107 -87 107c-52 0 -85 -31 -85 -100c0 -48 30 -92 69 -139l79 -94
c51 -61 79 -120 79 -192c0 -98 -49 -164 -140 -164zM94 774l70 139h40l68 -139h-47l-43 93l-43 -93h-45z" />
    <glyph glyph-name="Scaron" unicode="&#x160;" horiz-adv-x="366" 
d="M187 -9c-87 0 -140 56 -148 164l51 2c7 -76 37 -123 97 -123c69 0 91 61 91 116c0 49 -21 104 -60 149l-92 110c-45 52 -75 108 -75 167c0 84 46 148 137 148c74 0 126 -41 133 -150l-49 -1c-9 77 -38 107 -87 107c-52 0 -85 -31 -85 -100c0 -48 30 -92 69 -139l79 -94
c51 -61 79 -120 79 -192c0 -98 -49 -164 -140 -164zM162 774l-68 140h47l43 -93l43 93h45l-70 -140h-40z" />
    <glyph glyph-name="Scommaaccent" unicode="&#x218;" horiz-adv-x="366" 
d="M187 -9c-87 0 -140 56 -148 164l51 2c7 -76 37 -123 97 -123c69 0 91 61 91 116c0 49 -21 104 -60 149l-92 110c-45 52 -75 108 -75 167c0 84 46 148 137 148c74 0 126 -41 133 -150l-49 -1c-9 77 -38 107 -87 107c-52 0 -85 -31 -85 -100c0 -48 30 -92 69 -139l79 -94
c51 -61 79 -120 79 -192c0 -98 -49 -164 -140 -164zM163 -172l2 133h54l-19 -133h-37z" />
    <glyph glyph-name="Scedilla" unicode="&#x15e;" horiz-adv-x="366" 
d="M196 -179c-17 0 -42 2 -65 9v39c22 -5 40 -8 62 -8c25 0 42 7 42 27c0 19 -17 27 -49 29l-24 2l16 72c-82 4 -132 59 -139 164l51 2c7 -76 37 -123 97 -123c69 0 91 61 91 116c0 49 -21 104 -60 149l-92 110c-45 52 -75 108 -75 167c0 84 46 148 137 148
c74 0 126 -41 133 -150l-49 -1c-9 77 -38 107 -87 107c-52 0 -85 -31 -85 -100c0 -48 30 -92 69 -139l79 -94c51 -61 79 -120 79 -192c0 -89 -41 -152 -116 -162l-11 -47c40 -2 81 -15 81 -58c0 -39 -37 -67 -85 -67z" />
    <glyph glyph-name="Tcaron" unicode="&#x164;" horiz-adv-x="373" 
d="M161 0v667h-137v46h325v-46h-136v-667h-52zM165 774l-68 140h47l43 -93l43 93h45l-70 -140h-40z" />
    <glyph glyph-name="Tcommaaccent" unicode="&#x162;" horiz-adv-x="373" 
d="M161 0v667h-137v46h325v-46h-136v-667h-52zM160 -172l2 133h54l-19 -133h-37z" />
    <glyph glyph-name="uni021A" unicode="&#x21a;" horiz-adv-x="373" 
d="M161 0v667h-137v46h325v-46h-136v-667h-52zM160 -172l2 133h54l-19 -133h-37z" />
    <glyph glyph-name="Tbar" unicode="&#x166;" horiz-adv-x="373" 
d="M98 325v40h63v302h-137v46h325v-46h-136v-302h62v-40h-62v-325h-52v325h-63z" />
    <glyph glyph-name="Ugrave" unicode="&#xd9;" horiz-adv-x="429" 
d="M213 -10c-85 0 -151 48 -151 150v573h53v-563c0 -79 47 -112 102 -112c71 0 101 48 99 110v565h50v-566c1 -95 -58 -157 -153 -157zM201 773l-87 139h60l69 -139h-42z" />
    <glyph glyph-name="Uacute" unicode="&#xda;" horiz-adv-x="429" 
d="M213 -10c-85 0 -151 48 -151 150v573h53v-563c0 -79 47 -112 102 -112c71 0 101 48 99 110v565h50v-566c1 -95 -58 -157 -153 -157zM200 773l69 139h60l-87 -139h-42z" />
    <glyph glyph-name="Ucircumflex" unicode="&#xdb;" horiz-adv-x="429" 
d="M213 -10c-85 0 -151 48 -151 150v573h53v-563c0 -79 47 -112 102 -112c71 0 101 48 99 110v565h50v-566c1 -95 -58 -157 -153 -157zM125 774l70 139h40l68 -139h-47l-43 93l-43 -93h-45z" />
    <glyph glyph-name="Udieresis" unicode="&#xdc;" horiz-adv-x="429" 
d="M213 -10c-85 0 -151 48 -151 150v573h53v-563c0 -79 47 -112 102 -112c71 0 101 48 99 110v565h50v-566c1 -95 -58 -157 -153 -157zM132 791v109h48v-109h-48zM248 791v109h48v-109h-48z" />
    <glyph glyph-name="Utilde" unicode="&#x168;" horiz-adv-x="429" 
d="M213 -10c-85 0 -151 48 -151 150v573h53v-563c0 -79 47 -112 102 -112c71 0 101 48 99 110v565h50v-566c1 -95 -58 -157 -153 -157zM141 784l-35 5c5 41 28 75 66 75c35 0 70 -28 104 -28c19 0 26 13 32 35l34 -7c-5 -41 -30 -74 -66 -74c-37 0 -76 29 -104 29
c-20 0 -26 -12 -31 -35z" />
    <glyph glyph-name="Uring" unicode="&#x16e;" horiz-adv-x="429" 
d="M213 -10c-85 0 -151 48 -151 150v573h53v-563c0 -79 47 -112 102 -112c71 0 101 48 99 110v565h50v-566c1 -95 -58 -157 -153 -157zM214 768c-50 0 -75 36 -75 74c0 43 30 79 75 79c49 0 75 -33 75 -74c0 -45 -31 -79 -75 -79zM214 797c26 0 43 18 43 47
c0 27 -14 48 -44 48c-27 0 -40 -20 -40 -49c0 -30 17 -46 41 -46z" />
    <glyph glyph-name="Umacron" unicode="&#x16a;" horiz-adv-x="429" 
d="M213 -10c-85 0 -151 48 -151 150v573h53v-563c0 -79 47 -112 102 -112c71 0 101 48 99 110v565h50v-566c1 -95 -58 -157 -153 -157zM126 792v46h176v-46h-176z" />
    <glyph glyph-name="Ubreve" unicode="&#x16c;" horiz-adv-x="429" 
d="M213 -10c-85 0 -151 48 -151 150v573h53v-563c0 -79 47 -112 102 -112c71 0 101 48 99 110v565h50v-566c1 -95 -58 -157 -153 -157zM214 778c-66 0 -102 42 -103 113h41c4 -37 14 -76 65 -76c42 0 60 33 60 76h40c-3 -77 -47 -113 -103 -113z" />
    <glyph glyph-name="Uhungarumlaut" unicode="&#x170;" horiz-adv-x="429" 
d="M213 -10c-85 0 -151 48 -151 150v573h53v-563c0 -79 47 -112 102 -112c71 0 101 48 99 110v565h50v-566c1 -95 -58 -157 -153 -157zM149 777l47 124h54l-60 -124h-41zM252 777l48 124h53l-60 -124h-41z" />
    <glyph glyph-name="Uogonek" unicode="&#x172;" horiz-adv-x="429" 
d="M275 -179c-41 0 -77 24 -77 74c0 40 16 73 38 97c-8 -1 -15 -2 -23 -2c-85 0 -151 48 -151 150v573h53v-563c0 -79 47 -112 102 -112c71 0 101 48 99 110v565h50v-566c1 -74 -35 -129 -96 -148c-21 -23 -29 -54 -29 -86c0 -30 18 -48 43 -48c15 0 27 4 37 9l16 -36
c-13 -8 -31 -17 -62 -17z" />
    <glyph glyph-name="Wacute" unicode="&#x1e82;" horiz-adv-x="542" 
d="M132 -6l-98 719h53l71 -569h2l86 569h56l86 -568h2l69 568h49l-94 -719h-50l-91 591h-2l-89 -591h-50zM258 773l69 139h60l-87 -139h-42z" />
    <glyph glyph-name="Wcircumflex" unicode="&#x174;" horiz-adv-x="542" 
d="M132 -6l-98 719h53l71 -569h2l86 569h56l86 -568h2l69 568h49l-94 -719h-50l-91 591h-2l-89 -591h-50zM182 774l70 139h40l68 -139h-47l-43 93l-43 -93h-45z" />
    <glyph glyph-name="Wgrave" unicode="&#x1e80;" horiz-adv-x="542" 
d="M132 -6l-98 719h53l71 -569h2l86 569h56l86 -568h2l69 568h49l-94 -719h-50l-91 591h-2l-89 -591h-50zM250 773l-87 139h60l69 -139h-42z" />
    <glyph glyph-name="Wdieresis" unicode="&#x1e84;" horiz-adv-x="542" 
d="M132 -6l-98 719h53l71 -569h2l86 569h56l86 -568h2l69 568h49l-94 -719h-50l-91 591h-2l-89 -591h-50zM189 791v109h48v-109h-48zM305 791v109h48v-109h-48z" />
    <glyph glyph-name="Yacute" unicode="&#xdd;" horiz-adv-x="356" 
d="M153 0v315l-131 399h54l106 -329l102 329h50l-129 -401v-313h-52zM164 773l69 139h60l-87 -139h-42z" />
    <glyph glyph-name="Ycircumflex" unicode="&#x176;" horiz-adv-x="356" 
d="M153 0v315l-131 399h54l106 -329l102 329h50l-129 -401v-313h-52zM89 774l70 139h40l68 -139h-47l-43 93l-43 -93h-45z" />
    <glyph glyph-name="Ygrave" unicode="&#x1ef2;" horiz-adv-x="356" 
d="M153 0v315l-131 399h54l106 -329l102 329h50l-129 -401v-313h-52zM160 773l-87 139h60l69 -139h-42z" />
    <glyph glyph-name="Ydieresis" unicode="&#x178;" horiz-adv-x="356" 
d="M153 0v315l-131 399h54l106 -329l102 329h50l-129 -401v-313h-52zM96 791v109h48v-109h-48zM212 791v109h48v-109h-48z" />
    <glyph glyph-name="IJ" unicode="&#x132;" horiz-adv-x="545" 
d="M66 0v713h53v-713h-53zM339 -10c-92 0 -141 55 -141 142v128h51v-122c0 -51 19 -101 92 -101c69 0 90 48 90 100v576h52v-573c0 -87 -48 -150 -144 -150z" />
    <glyph glyph-name="Zcaron" unicode="&#x17d;" horiz-adv-x="326" 
d="M33 0v42l202 625h-195v46h254v-35l-203 -631h201v-47h-259zM150 774l-68 140h47l43 -93l43 93h45l-70 -140h-40z" />
    <glyph glyph-name="Zdotaccent" unicode="&#x17b;" horiz-adv-x="326" 
d="M33 0v42l202 625h-195v46h254v-35l-203 -631h201v-47h-259zM138 791v111h49v-111h-49z" />
    <glyph glyph-name="Zacute" unicode="&#x179;" horiz-adv-x="326" 
d="M33 0v42l202 625h-195v46h254v-35l-203 -631h201v-47h-259zM141 773l69 139h60l-87 -139h-42z" />
    <glyph glyph-name="Eng" unicode="&#x14a;" horiz-adv-x="440" 
d="M293 -170c-14 0 -24 1 -35 3v41h23c32 0 43 20 43 53v70l-209 610h-2v-607h-47v713h61l199 -565h2v565h46v-794c0 -51 -26 -89 -81 -89z" />
    <glyph glyph-name="Eth" unicode="&#xd0;" horiz-adv-x="426" 
d="M23 353v44h48v316h150c86 0 151 -44 151 -139v-422c0 -102 -65 -152 -154 -152h-147v353h-48zM123 47h92c78 0 103 57 103 103v418c0 54 -31 99 -102 99h-93v-270h131v-44h-131v-306z" />
    <glyph glyph-name="Thorn" unicode="&#xde;" horiz-adv-x="381" 
d="M56 0v713h53v-147h80c116 0 154 -87 154 -200c0 -125 -52 -209 -162 -209h-72v-157h-53zM109 203h67c80 0 114 58 114 163c0 84 -24 153 -105 153h-76v-316z" />
    <glyph glyph-name="a" unicode="a" horiz-adv-x="342" 
d="M143 -9c-57 0 -103 49 -103 155c0 99 58 163 142 166h50v114c0 38 -23 61 -66 61c-39 0 -67 -20 -67 -59v-59h-48v58c0 59 45 101 121 101c68 0 110 -41 110 -99v-300c0 -34 2 -101 3 -129h-45c0 11 -2 40 -2 58h-3c-17 -48 -60 -67 -92 -67zM154 33c44 0 78 50 78 102
v139h-48c-44 0 -93 -27 -93 -123c0 -83 27 -118 63 -118z" />
    <glyph glyph-name="b" unicode="b" horiz-adv-x="365" 
d="M205 -9c-40 0 -79 24 -92 63h-1l-2 -54h-44v713h50v-250h2c22 48 65 65 98 65c68 0 99 -52 99 -103v-320c0 -77 -51 -114 -110 -114zM200 36c41 0 64 23 64 74v301c0 39 -16 72 -66 72c-44 0 -82 -55 -82 -117v-220c0 -56 37 -110 84 -110z" />
    <glyph glyph-name="c" unicode="c" horiz-adv-x="336" 
d="M174 -9c-80 0 -124 49 -124 136v266c0 89 54 135 127 135c80 0 117 -51 117 -108v-56h-46v52c0 31 -16 69 -71 69c-57 0 -76 -42 -76 -86v-276c0 -46 17 -88 75 -88c64 0 72 47 72 74v48h46v-53c0 -66 -41 -113 -120 -113z" />
    <glyph glyph-name="d" unicode="d" horiz-adv-x="366" 
d="M150 -8c-69 0 -100 50 -100 103v319c0 72 50 114 109 114c36 0 72 -17 89 -56h1v241h51v-713h-41l-3 63h-3c-23 -56 -71 -71 -103 -71zM166 37c49 0 84 59 84 120v215c0 57 -39 112 -84 112c-40 0 -65 -22 -65 -78v-295c0 -42 16 -74 65 -74z" />
    <glyph glyph-name="e" unicode="e" horiz-adv-x="340" 
d="M185 -9c-85 0 -135 44 -135 142v252c0 90 51 143 129 143s116 -55 116 -133v-146h-194v-107c0 -69 21 -106 91 -106c33 0 63 12 84 22l15 -38c-28 -18 -67 -29 -106 -29zM101 291h146v107c0 41 -16 86 -73 86c-54 0 -73 -46 -73 -88v-105z" />
    <glyph glyph-name="f" unicode="f" horiz-adv-x="237" 
d="M90 0v476h-54v41h54v114c0 53 34 91 89 91c12 0 26 0 40 -5v-40c-11 2 -23 3 -35 3c-24 0 -44 -16 -44 -49v-114h69v-41h-69v-476h-50z" />
    <glyph glyph-name="g" unicode="g" horiz-adv-x="365" 
d="M157 -170c-41 0 -74 7 -107 23l18 42c32 -14 59 -21 90 -21c59 0 91 32 91 98v103h-2c-18 -45 -61 -67 -95 -67c-70 0 -102 53 -102 114v289c0 79 52 117 109 117c33 0 79 -17 94 -61h1v52h45v-543c0 -97 -57 -146 -142 -146zM166 53c44 0 83 51 83 110v214
c0 60 -43 110 -85 110c-40 0 -64 -29 -64 -80v-278c0 -36 14 -76 66 -76z" />
    <glyph glyph-name="h" unicode="h" horiz-adv-x="372" 
d="M66 0v713h50v-252h1c22 46 60 67 105 67c53 0 90 -35 90 -89v-439h-50v415c0 47 -23 70 -61 70c-50 0 -85 -61 -85 -115v-370h-50z" />
    <glyph glyph-name="i" unicode="i" horiz-adv-x="182" 
d="M66 0v518h50v-518h-50zM66 619v98h50v-98h-50z" />
    <glyph glyph-name="j" unicode="j" horiz-adv-x="182" 
d="M35 -170c-14 0 -24 1 -35 3v41h23c32 0 43 20 43 53v591h50v-599c0 -51 -26 -89 -81 -89zM66 619v98h50v-98h-50z" />
    <glyph glyph-name="k" unicode="k" horiz-adv-x="333" 
d="M66 0v713h50v-448l137 253h54l-102 -179l101 -339h-52l-84 289l-54 -94v-195h-50z" />
    <glyph glyph-name="l" unicode="l" horiz-adv-x="199" 
d="M134 -5c-48 0 -70 27 -70 71v647h50v-637c0 -20 11 -35 36 -35c9 0 18 1 27 3v-42c-15 -5 -29 -7 -43 -7z" />
    <glyph glyph-name="m" unicode="m" horiz-adv-x="569" 
d="M66 0v518h46v-59h1c21 46 64 69 109 69c46 0 79 -27 87 -67h1c22 45 64 67 109 67c52 0 90 -35 90 -89v-439h-50v415c0 47 -22 70 -62 70c-48 0 -83 -52 -85 -103v-382h-50v417c-1 45 -23 68 -61 68c-50 0 -85 -59 -85 -113v-372h-50z" />
    <glyph glyph-name="n" unicode="n" horiz-adv-x="372" 
d="M66 0v518h46v-59h1c21 45 64 69 109 69c53 0 90 -35 90 -89v-439h-50v415c0 47 -23 70 -61 70c-50 0 -85 -59 -85 -113v-372h-50z" />
    <glyph glyph-name="o" unicode="o" horiz-adv-x="356" 
d="M177 -9c-81 0 -127 50 -127 137v265c0 87 56 135 129 135c75 0 127 -45 127 -130v-268c0 -94 -54 -139 -129 -139zM179 35c61 0 76 46 76 91v272c0 46 -22 87 -78 87s-76 -42 -76 -88v-271c0 -46 21 -91 78 -91z" />
    <glyph glyph-name="p" unicode="p" horiz-adv-x="365" 
d="M66 -162v680h46v-56h2c20 48 68 66 100 66c70 0 101 -50 101 -103v-318c0 -72 -44 -116 -108 -116c-36 0 -74 18 -90 56h-1v-209h-50zM201 37c40 0 63 23 63 75v298c0 40 -16 71 -66 71c-48 0 -82 -49 -82 -111v-231c0 -57 33 -102 85 -102z" />
    <glyph glyph-name="q" unicode="q" horiz-adv-x="365" 
d="M249 -162v212h-1c-25 -44 -64 -60 -97 -60c-65 0 -101 47 -101 107v321c0 65 46 110 108 110c35 0 79 -16 95 -64h2l1 54h43v-680h-50zM168 34c43 0 81 53 81 111v229c0 60 -39 113 -85 113c-43 0 -64 -33 -64 -80v-294c0 -44 21 -79 68 -79z" />
    <glyph glyph-name="r" unicode="r" horiz-adv-x="250" 
d="M66 0v518h49v-57h1c21 47 57 61 92 61c7 0 15 0 21 -2v-51c-11 1 -22 2 -29 2c-50 0 -83 -31 -84 -89v-382h-50z" />
    <glyph glyph-name="s" unicode="s" horiz-adv-x="304" 
d="M157 -8c-75 0 -116 50 -121 126h50c7 -53 25 -83 72 -83c39 0 64 23 64 71c0 44 -36 87 -63 121l-49 60c-36 46 -60 84 -60 132c0 58 36 108 113 108c61 0 105 -39 109 -121l-48 -2c-6 59 -25 81 -64 81c-40 0 -62 -27 -62 -62c0 -28 12 -57 45 -96l60 -72
c46 -59 67 -105 67 -147c0 -58 -36 -116 -113 -116z" />
    <glyph glyph-name="t" unicode="t" horiz-adv-x="245" 
d="M158 -6c-35 0 -71 15 -71 68v411h-55v44h55v118h49v-118h86v-44h-86v-397c0 -28 11 -38 32 -38c15 0 32 4 44 8v-41c-19 -7 -35 -11 -54 -11z" />
    <glyph glyph-name="u" unicode="u" horiz-adv-x="372" 
d="M149 -10c-52 0 -89 35 -89 90v438h50v-417c0 -46 22 -67 61 -67c50 0 85 59 85 113v371h50v-518h-46v60h-1c-22 -46 -65 -70 -110 -70z" />
    <glyph glyph-name="v" unicode="v" horiz-adv-x="309" 
d="M128 -2l-106 520h52l81 -425h2l82 425h48l-107 -520h-52z" />
    <glyph glyph-name="w" unicode="w" horiz-adv-x="474" 
d="M111 -1l-86 519h53l60 -406h3l72 406h54l73 -406h3l59 406h47l-85 -519h-48l-76 428h-3l-78 -428h-48z" />
    <glyph glyph-name="x" unicode="x" horiz-adv-x="308" 
d="M18 0l108 265l-101 253h54l78 -208l78 208h46l-98 -250l107 -268h-53l-85 219l-86 -219h-48z" />
    <glyph glyph-name="y" unicode="y" horiz-adv-x="310" 
d="M69 -173c-13 0 -29 1 -47 6l7 43c13 -3 24 -5 37 -5c21 0 41 8 52 52l20 91l-115 504h51l87 -399h2l78 399h47l-121 -565c-16 -83 -43 -126 -98 -126z" />
    <glyph glyph-name="z" unicode="z" horiz-adv-x="277" 
d="M31 0v34l163 442h-159v42h213v-40l-160 -436h162v-42h-219z" />
    <glyph glyph-name="agrave" unicode="&#xe0;" horiz-adv-x="342" 
d="M143 -9c-57 0 -103 49 -103 155c0 99 58 163 142 166h50v114c0 38 -23 61 -66 61c-39 0 -67 -20 -67 -59v-59h-48v58c0 59 45 101 121 101c68 0 110 -41 110 -99v-300c0 -34 2 -101 3 -129h-45c0 11 -2 40 -2 58h-3c-17 -48 -60 -67 -92 -67zM154 33c44 0 78 50 78 102
v139h-48c-44 0 -93 -27 -93 -123c0 -83 27 -118 63 -118zM156 578l-87 139h60l69 -139h-42z" />
    <glyph glyph-name="aacute" unicode="&#xe1;" horiz-adv-x="342" 
d="M143 -9c-57 0 -103 49 -103 155c0 99 58 163 142 166h50v114c0 38 -23 61 -66 61c-39 0 -67 -20 -67 -59v-59h-48v58c0 59 45 101 121 101c68 0 110 -41 110 -99v-300c0 -34 2 -101 3 -129h-45c0 11 -2 40 -2 58h-3c-17 -48 -60 -67 -92 -67zM154 33c44 0 78 50 78 102
v139h-48c-44 0 -93 -27 -93 -123c0 -83 27 -118 63 -118zM141 578l69 139h60l-87 -139h-42z" />
    <glyph glyph-name="acircumflex" unicode="&#xe2;" horiz-adv-x="342" 
d="M143 -9c-57 0 -103 49 -103 155c0 99 58 163 142 166h50v114c0 38 -23 61 -66 61c-39 0 -67 -20 -67 -59v-59h-48v58c0 59 45 101 121 101c68 0 110 -41 110 -99v-300c0 -34 2 -101 3 -129h-45c0 11 -2 40 -2 58h-3c-17 -48 -60 -67 -92 -67zM154 33c44 0 78 50 78 102
v139h-48c-44 0 -93 -27 -93 -123c0 -83 27 -118 63 -118zM82 579l70 139h40l68 -139h-47l-43 93l-43 -93h-45z" />
    <glyph glyph-name="adieresis" unicode="&#xe4;" horiz-adv-x="342" 
d="M143 -9c-57 0 -103 49 -103 155c0 99 58 163 142 166h50v114c0 38 -23 61 -66 61c-39 0 -67 -20 -67 -59v-59h-48v58c0 59 45 101 121 101c68 0 110 -41 110 -99v-300c0 -34 2 -101 3 -129h-45c0 11 -2 40 -2 58h-3c-17 -48 -60 -67 -92 -67zM154 33c44 0 78 50 78 102
v139h-48c-44 0 -93 -27 -93 -123c0 -83 27 -118 63 -118zM90 596v109h48v-109h-48zM206 596v109h48v-109h-48z" />
    <glyph glyph-name="atilde" unicode="&#xe3;" horiz-adv-x="342" 
d="M143 -9c-57 0 -103 49 -103 155c0 99 58 163 142 166h50v114c0 38 -23 61 -66 61c-39 0 -67 -20 -67 -59v-59h-48v58c0 59 45 101 121 101c68 0 110 -41 110 -99v-300c0 -34 2 -101 3 -129h-45c0 11 -2 40 -2 58h-3c-17 -48 -60 -67 -92 -67zM154 33c44 0 78 50 78 102
v139h-48c-44 0 -93 -27 -93 -123c0 -83 27 -118 63 -118zM90 589l-35 5c5 41 28 75 66 75c35 0 70 -28 104 -28c19 0 26 13 32 35l34 -7c-5 -41 -30 -74 -66 -74c-37 0 -76 29 -104 29c-20 0 -26 -12 -31 -35z" />
    <glyph glyph-name="aring" unicode="&#xe5;" horiz-adv-x="342" 
d="M143 -9c-57 0 -103 49 -103 155c0 99 58 163 142 166h50v114c0 38 -23 61 -66 61c-39 0 -67 -20 -67 -59v-59h-48v58c0 59 45 101 121 101c68 0 110 -41 110 -99v-300c0 -34 2 -101 3 -129h-45c0 11 -2 40 -2 58h-3c-17 -48 -60 -67 -92 -67zM154 33c44 0 78 50 78 102
v139h-48c-44 0 -93 -27 -93 -123c0 -83 27 -118 63 -118zM167 573c-50 0 -75 36 -75 74c0 43 30 79 75 79c49 0 75 -33 75 -74c0 -45 -31 -79 -75 -79zM167 602c26 0 43 18 43 47c0 27 -14 48 -44 48c-27 0 -40 -20 -40 -49c0 -30 17 -46 41 -46z" />
    <glyph glyph-name="aringacute" unicode="&#x1fb;" horiz-adv-x="342" 
d="M143 -9c-57 0 -103 49 -103 155c0 99 58 163 142 166h50v114c0 38 -23 61 -66 61c-39 0 -67 -20 -67 -59v-59h-48v58c0 59 45 101 121 101c68 0 110 -41 110 -99v-300c0 -34 2 -101 3 -129h-45c0 11 -2 40 -2 58h-3c-17 -48 -60 -67 -92 -67zM154 33c44 0 78 50 78 102
v139h-48c-44 0 -93 -27 -93 -123c0 -83 27 -118 63 -118zM173 573c-52 0 -75 37 -75 73c0 19 7 38 17 53l64 94l52 -8l-55 -62c49 -2 72 -34 72 -72c0 -44 -31 -78 -75 -78zM173 601c25 0 43 18 43 48c0 26 -14 47 -43 47c-27 0 -41 -20 -41 -49c0 -30 17 -46 41 -46z" />
    <glyph glyph-name="amacron" unicode="&#x101;" horiz-adv-x="342" 
d="M143 -9c-57 0 -103 49 -103 155c0 99 58 163 142 166h50v114c0 38 -23 61 -66 61c-39 0 -67 -20 -67 -59v-59h-48v58c0 59 45 101 121 101c68 0 110 -41 110 -99v-300c0 -34 2 -101 3 -129h-45c0 11 -2 40 -2 58h-3c-17 -48 -60 -67 -92 -67zM154 33c44 0 78 50 78 102
v139h-48c-44 0 -93 -27 -93 -123c0 -83 27 -118 63 -118zM83 597v46h176v-46h-176z" />
    <glyph glyph-name="abreve" unicode="&#x103;" horiz-adv-x="342" 
d="M143 -9c-57 0 -103 49 -103 155c0 99 58 163 142 166h50v114c0 38 -23 61 -66 61c-39 0 -67 -20 -67 -59v-59h-48v58c0 59 45 101 121 101c68 0 110 -41 110 -99v-300c0 -34 2 -101 3 -129h-45c0 11 -2 40 -2 58h-3c-17 -48 -60 -67 -92 -67zM154 33c44 0 78 50 78 102
v139h-48c-44 0 -93 -27 -93 -123c0 -83 27 -118 63 -118zM171 583c-66 0 -102 42 -103 113h41c4 -37 14 -76 65 -76c42 0 60 33 60 76h40c-3 -77 -47 -113 -103 -113z" />
    <glyph glyph-name="aogonek" unicode="&#x105;" horiz-adv-x="342" 
d="M267 -179c-41 0 -77 24 -77 74c0 46 23 82 50 106c0 11 -2 39 -2 57h-3c-17 -48 -60 -67 -92 -67c-57 0 -103 49 -103 155c0 99 58 163 142 166h50v114c0 38 -23 61 -66 61c-39 0 -67 -20 -67 -59v-59h-48v58c0 59 45 101 121 101c68 0 110 -41 110 -99v-300
c0 -34 2 -101 3 -129h-5c-30 -21 -47 -49 -47 -87c0 -30 18 -48 43 -48c15 0 27 4 37 9l16 -36c-13 -8 -31 -17 -62 -17zM154 33c44 0 78 50 78 102v139h-48c-44 0 -93 -27 -93 -123c0 -83 27 -118 63 -118z" />
    <glyph glyph-name="ae" unicode="&#xe6;" horiz-adv-x="522" 
d="M144 -10c-58 0 -104 50 -104 156c0 99 58 164 142 166h50v114c0 38 -23 61 -66 61c-39 0 -67 -20 -67 -59v-59h-48v58c0 59 45 101 121 101c41 0 76 -15 91 -46c20 30 55 46 97 46c78 0 117 -54 117 -133v-146h-194v-107c0 -66 18 -106 90 -106c34 0 64 10 85 22l15 -38
c-25 -19 -68 -29 -106 -29c-58 0 -99 21 -118 68c-25 -55 -70 -69 -105 -69zM159 33c43 0 73 39 73 92v149h-48c-44 0 -93 -27 -93 -123c0 -83 32 -118 68 -118zM283 291h145v107c0 41 -15 86 -72 86c-54 0 -73 -46 -73 -86v-107z" />
    <glyph glyph-name="aeacute" unicode="&#x1fd;" horiz-adv-x="522" 
d="M144 -10c-58 0 -104 50 -104 156c0 99 58 164 142 166h50v114c0 38 -23 61 -66 61c-39 0 -67 -20 -67 -59v-59h-48v58c0 59 45 101 121 101c41 0 76 -15 91 -46c20 30 55 46 97 46c78 0 117 -54 117 -133v-146h-194v-107c0 -66 18 -106 90 -106c34 0 64 10 85 22l15 -38
c-25 -19 -68 -29 -106 -29c-58 0 -99 21 -118 68c-25 -55 -70 -69 -105 -69zM159 33c43 0 73 39 73 92v149h-48c-44 0 -93 -27 -93 -123c0 -83 32 -118 68 -118zM283 291h145v107c0 41 -15 86 -72 86c-54 0 -73 -46 -73 -86v-107zM243 578l69 139h60l-87 -139h-42z" />
    <glyph glyph-name="cacute" unicode="&#x107;" horiz-adv-x="336" 
d="M174 -9c-80 0 -124 49 -124 136v266c0 89 54 135 127 135c80 0 117 -51 117 -108v-56h-46v52c0 31 -16 69 -71 69c-57 0 -76 -42 -76 -86v-276c0 -46 17 -88 75 -88c64 0 72 47 72 74v48h46v-53c0 -66 -41 -113 -120 -113zM144 578l69 139h60l-87 -139h-42z" />
    <glyph glyph-name="ccircumflex" unicode="&#x109;" horiz-adv-x="336" 
d="M174 -9c-80 0 -124 49 -124 136v266c0 89 54 135 127 135c80 0 117 -51 117 -108v-56h-46v52c0 31 -16 69 -71 69c-57 0 -76 -42 -76 -86v-276c0 -46 17 -88 75 -88c64 0 72 47 72 74v48h46v-53c0 -66 -41 -113 -120 -113zM88 579l70 139h40l68 -139h-47l-43 93l-43 -93
h-45z" />
    <glyph glyph-name="ccaron" unicode="&#x10d;" horiz-adv-x="336" 
d="M174 -9c-80 0 -124 49 -124 136v266c0 89 54 135 127 135c80 0 117 -51 117 -108v-56h-46v52c0 31 -16 69 -71 69c-57 0 -76 -42 -76 -86v-276c0 -46 17 -88 75 -88c64 0 72 47 72 74v48h46v-53c0 -66 -41 -113 -120 -113zM155 579l-68 140h47l43 -93l43 93h45l-70 -140
h-40z" />
    <glyph glyph-name="cdotaccent" unicode="&#x10b;" horiz-adv-x="336" 
d="M174 -9c-80 0 -124 49 -124 136v266c0 89 54 135 127 135c80 0 117 -51 117 -108v-56h-46v52c0 31 -16 69 -71 69c-57 0 -76 -42 -76 -86v-276c0 -46 17 -88 75 -88c64 0 72 47 72 74v48h46v-53c0 -66 -41 -113 -120 -113zM150 596v111h49v-111h-49z" />
    <glyph glyph-name="ccedilla" unicode="&#xe7;" horiz-adv-x="336" 
d="M180 -179c-17 0 -42 2 -65 9v39c22 -5 40 -8 62 -8c25 0 42 7 42 27c0 19 -17 27 -49 29l-24 2l16 73c-72 4 -112 52 -112 135v266c0 89 54 135 127 135c80 0 117 -51 117 -108v-56h-46v52c0 31 -16 69 -71 69c-57 0 -76 -42 -76 -86v-276c0 -46 17 -88 75 -88
c64 0 72 47 72 74v48h46v-53c0 -60 -34 -104 -99 -111l-11 -47c40 -2 81 -15 81 -58c0 -39 -37 -67 -85 -67z" />
    <glyph glyph-name="dcaron" unicode="&#x10f;" horiz-adv-x="366" 
d="M150 -8c-69 0 -100 50 -100 103v319c0 72 50 114 109 114c36 0 72 -17 89 -56h1v241h51v-713h-41l-3 63h-3c-23 -56 -71 -71 -103 -71zM166 37c49 0 84 59 84 120v215c0 57 -39 112 -84 112c-40 0 -65 -22 -65 -78v-295c0 -42 16 -74 65 -74zM333 568l4 145h54l-23 -145
h-35z" />
    <glyph glyph-name="dcroat" unicode="&#x111;" horiz-adv-x="366" 
d="M154 602v39h95v72h51v-72h36v-39h-36v-602h-41l-3 63h-3c-23 -56 -71 -71 -103 -71c-69 0 -100 50 -100 103v319c0 72 50 114 109 114c36 0 72 -17 89 -56h1v130h-95zM166 37c49 0 84 59 84 120v215c0 57 -39 112 -84 112c-40 0 -65 -22 -65 -78v-295
c0 -42 16 -74 65 -74z" />
    <glyph glyph-name="egrave" unicode="&#xe8;" horiz-adv-x="340" 
d="M185 -9c-85 0 -135 44 -135 142v252c0 90 51 143 129 143s116 -55 116 -133v-146h-194v-107c0 -69 21 -106 91 -106c33 0 63 12 84 22l15 -38c-28 -18 -67 -29 -106 -29zM101 291h146v107c0 41 -16 86 -73 86c-54 0 -73 -46 -73 -88v-105zM168 578l-87 139h60l69 -139
h-42z" />
    <glyph glyph-name="eacute" unicode="&#xe9;" horiz-adv-x="340" 
d="M153 578l69 139h60l-87 -139h-42zM185 -9c-85 0 -135 44 -135 142v252c0 90 51 143 129 143s116 -55 116 -133v-146h-194v-107c0 -69 21 -106 91 -106c33 0 63 12 84 22l15 -38c-28 -18 -67 -29 -106 -29zM101 291h146v107c0 41 -16 86 -73 86c-54 0 -73 -46 -73 -88
v-105z" />
    <glyph glyph-name="ecircumflex" unicode="&#xea;" horiz-adv-x="340" 
d="M97 579l70 139h40l68 -139h-47l-43 93l-43 -93h-45zM185 -9c-85 0 -135 44 -135 142v252c0 90 51 143 129 143s116 -55 116 -133v-146h-194v-107c0 -69 21 -106 91 -106c33 0 63 12 84 22l15 -38c-28 -18 -67 -29 -106 -29zM101 291h146v107c0 41 -16 86 -73 86
c-54 0 -73 -46 -73 -88v-105z" />
    <glyph glyph-name="edieresis" unicode="&#xeb;" horiz-adv-x="340" 
d="M102 596v109h48v-109h-48zM218 596v109h48v-109h-48zM185 -9c-85 0 -135 44 -135 142v252c0 90 51 143 129 143s116 -55 116 -133v-146h-194v-107c0 -69 21 -106 91 -106c33 0 63 12 84 22l15 -38c-28 -18 -67 -29 -106 -29zM101 291h146v107c0 41 -16 86 -73 86
c-54 0 -73 -46 -73 -88v-105z" />
    <glyph glyph-name="ecaron" unicode="&#x11b;" horiz-adv-x="340" 
d="M185 -9c-85 0 -135 44 -135 142v252c0 90 51 143 129 143s116 -55 116 -133v-146h-194v-107c0 -69 21 -106 91 -106c33 0 63 12 84 22l15 -38c-28 -18 -67 -29 -106 -29zM101 291h146v107c0 41 -16 86 -73 86c-54 0 -73 -46 -73 -88v-105zM149 579l-68 140h47l43 -93
l43 93h45l-70 -140h-40z" />
    <glyph glyph-name="emacron" unicode="&#x113;" horiz-adv-x="340" 
d="M185 -9c-85 0 -135 44 -135 142v252c0 90 51 143 129 143s116 -55 116 -133v-146h-194v-107c0 -69 21 -106 91 -106c33 0 63 12 84 22l15 -38c-28 -18 -67 -29 -106 -29zM101 291h146v107c0 41 -16 86 -73 86c-54 0 -73 -46 -73 -88v-105zM90 597v46h176v-46h-176z" />
    <glyph glyph-name="ebreve" unicode="&#x115;" horiz-adv-x="340" 
d="M185 -9c-85 0 -135 44 -135 142v252c0 90 51 143 129 143s116 -55 116 -133v-146h-194v-107c0 -69 21 -106 91 -106c33 0 63 12 84 22l15 -38c-28 -18 -67 -29 -106 -29zM101 291h146v107c0 41 -16 86 -73 86c-54 0 -73 -46 -73 -88v-105zM178 583
c-66 0 -102 42 -103 113h41c4 -37 14 -76 65 -76c42 0 60 33 60 76h40c-3 -77 -47 -113 -103 -113z" />
    <glyph glyph-name="edotaccent" unicode="&#x117;" horiz-adv-x="340" 
d="M185 -9c-85 0 -135 44 -135 142v252c0 90 51 143 129 143s116 -55 116 -133v-146h-194v-107c0 -69 21 -106 91 -106c33 0 63 12 84 22l15 -38c-28 -18 -67 -29 -106 -29zM101 291h146v107c0 41 -16 86 -73 86c-54 0 -73 -46 -73 -88v-105zM152 596v111h49v-111h-49z" />
    <glyph glyph-name="eogonek" unicode="&#x119;" horiz-adv-x="340" 
d="M185 -9c-85 0 -135 44 -135 142v252c0 90 51 143 129 143s116 -55 116 -133v-146h-194v-107c0 -69 21 -106 91 -106c33 0 63 12 84 22l15 -38c-6 -4 -13 -8 -20 -11c-30 -23 -41 -58 -41 -96c0 -30 18 -48 43 -48c15 0 27 4 37 9l16 -36c-13 -8 -31 -17 -62 -17
c-41 0 -77 24 -77 74c0 42 18 77 41 101c-14 -3 -29 -5 -43 -5zM101 291h146v107c0 41 -16 86 -73 86c-54 0 -73 -46 -73 -88v-105z" />
    <glyph glyph-name="gcircumflex" unicode="&#x11d;" horiz-adv-x="365" 
d="M157 -170c-41 0 -74 7 -107 23l18 42c32 -14 59 -21 90 -21c59 0 91 32 91 98v103h-2c-18 -45 -61 -67 -95 -67c-70 0 -102 53 -102 114v289c0 79 52 117 109 117c33 0 79 -17 94 -61h1v52h45v-543c0 -97 -57 -146 -142 -146zM166 53c44 0 83 51 83 110v214
c0 60 -43 110 -85 110c-40 0 -64 -29 -64 -80v-278c0 -36 14 -76 66 -76zM86 579l70 139h40l68 -139h-47l-43 93l-43 -93h-45z" />
    <glyph glyph-name="gbreve" unicode="&#x11f;" horiz-adv-x="365" 
d="M157 -170c-41 0 -74 7 -107 23l18 42c32 -14 59 -21 90 -21c59 0 91 32 91 98v103h-2c-18 -45 -61 -67 -95 -67c-70 0 -102 53 -102 114v289c0 79 52 117 109 117c33 0 79 -17 94 -61h1v52h45v-543c0 -97 -57 -146 -142 -146zM166 53c44 0 83 51 83 110v214
c0 60 -43 110 -85 110c-40 0 -64 -29 -64 -80v-278c0 -36 14 -76 66 -76zM173 583c-66 0 -102 42 -103 113h41c4 -37 14 -76 65 -76c42 0 60 33 60 76h40c-3 -77 -47 -113 -103 -113z" />
    <glyph glyph-name="gdotaccent" unicode="&#x121;" horiz-adv-x="365" 
d="M157 -170c-41 0 -74 7 -107 23l18 42c32 -14 59 -21 90 -21c59 0 91 32 91 98v103h-2c-18 -45 -61 -67 -95 -67c-70 0 -102 53 -102 114v289c0 79 52 117 109 117c33 0 79 -17 94 -61h1v52h45v-543c0 -97 -57 -146 -142 -146zM166 53c44 0 83 51 83 110v214
c0 60 -43 110 -85 110c-40 0 -64 -29 -64 -80v-278c0 -36 14 -76 66 -76zM147 596v111h49v-111h-49z" />
    <glyph glyph-name="gcommaaccent" unicode="&#x123;" horiz-adv-x="365" 
d="M157 -170c-41 0 -74 7 -107 23l18 42c32 -14 59 -21 90 -21c59 0 91 32 91 98v103h-2c-18 -45 -61 -67 -95 -67c-70 0 -102 53 -102 114v289c0 79 52 117 109 117c33 0 79 -17 94 -61h1v52h45v-543c0 -97 -57 -146 -142 -146zM166 53c44 0 83 51 83 110v214
c0 60 -43 110 -85 110c-40 0 -64 -29 -64 -80v-278c0 -36 14 -76 66 -76zM141 596v64l22 63h26l-15 -60h15v-67h-48z" />
    <glyph glyph-name="hcircumflex" unicode="&#x125;" horiz-adv-x="372" 
d="M66 0v713h50v-252h1c22 46 60 67 105 67c53 0 90 -35 90 -89v-439h-50v415c0 47 -23 70 -61 70c-50 0 -85 -61 -85 -115v-370h-50zM16 769l70 139h40l68 -139h-47l-43 93l-43 -93h-45z" />
    <glyph glyph-name="hbar" unicode="&#x127;" horiz-adv-x="379" 
d="M40 602v39h33v72h50v-72h86v-39h-86v-141h1c22 46 60 67 105 67c53 0 90 -35 90 -89v-439h-50v415c0 47 -23 70 -61 70c-50 0 -85 -61 -85 -115v-370h-50v602h-33z" />
    <glyph glyph-name="dotlessi" unicode="&#x131;" horiz-adv-x="182" 
d="M66 0v518h50v-518h-50z" />
    <glyph glyph-name="igrave" unicode="&#xec;" horiz-adv-x="182" 
d="M66 0v518h50v-518h-50zM72 578l-87 139h60l69 -139h-42z" />
    <glyph glyph-name="iacute" unicode="&#xed;" horiz-adv-x="182" 
d="M71 578l69 139h60l-87 -139h-42zM66 0v518h50v-518h-50z" />
    <glyph glyph-name="icircumflex" unicode="&#xee;" horiz-adv-x="182" 
d="M7 579l70 139h40l68 -139h-47l-43 93l-43 -93h-45zM66 0v518h50v-518h-50z" />
    <glyph glyph-name="idieresis" unicode="&#xef;" horiz-adv-x="182" 
d="M13 596v109h48v-109h-48zM129 596v109h48v-109h-48zM66 0v518h50v-518h-50z" />
    <glyph glyph-name="itilde" unicode="&#x129;" horiz-adv-x="182" 
d="M66 0v518h50v-518h-50zM8 589l-35 5c5 41 28 75 66 75c35 0 70 -28 104 -28c19 0 26 13 32 35l34 -7c-5 -41 -30 -74 -66 -74c-37 0 -76 29 -104 29c-20 0 -26 -12 -31 -35z" />
    <glyph glyph-name="ibreve" unicode="&#x12d;" horiz-adv-x="182" 
d="M66 0v518h50v-518h-50zM91 583c-66 0 -102 42 -103 113h41c4 -37 14 -76 65 -76c42 0 60 33 60 76h40c-3 -77 -47 -113 -103 -113z" />
    <glyph glyph-name="imacron" unicode="&#x12b;" horiz-adv-x="182" 
d="M66 0v518h50v-518h-50zM3 597v46h176v-46h-176z" />
    <glyph glyph-name="idotaccent" horiz-adv-x="182" 
d="M66 0v518h50v-518h-50zM66 619v98h50v-98h-50z" />
    <glyph glyph-name="iogonek" unicode="&#x12f;" horiz-adv-x="182" 
d="M66 0v518h50v-518h-9c-26 -21 -42 -51 -42 -87c0 -30 12 -48 37 -48c9 0 19 3 29 8l14 -36c-13 -8 -29 -15 -50 -15c-41 0 -73 23 -73 73c0 45 21 81 46 105h-2zM66 619v98h50v-98h-50z" />
    <glyph glyph-name="dotlessj" unicode="&#x237;" horiz-adv-x="182" 
d="M35 -170c-14 0 -24 1 -35 3v41h23c32 0 43 20 43 53v591h50v-599c0 -51 -26 -89 -81 -89z" />
    <glyph glyph-name="jcircumflex" unicode="&#x135;" horiz-adv-x="182" 
d="M35 -170c-14 0 -24 1 -35 3v41h23c32 0 43 20 43 53v591h50v-599c0 -51 -26 -89 -81 -89zM2 579l70 139h40l68 -139h-47l-43 93l-43 -93h-45z" />
    <glyph glyph-name="kcommaaccent" unicode="&#x137;" horiz-adv-x="333" 
d="M66 0v713h50v-448l137 253h54l-102 -179l101 -339h-52l-84 289l-54 -94v-195h-50zM157 -172l2 133h54l-19 -133h-37z" />
    <glyph glyph-name="kgreenlandic" unicode="&#x138;" horiz-adv-x="333" 
d="M66 0v518h50v-253l137 253h54l-102 -179l101 -339h-52l-84 289l-54 -94v-195h-50z" />
    <glyph glyph-name="lacute" unicode="&#x13a;" horiz-adv-x="199" 
d="M134 -5c-48 0 -70 27 -70 71v647h50v-637c0 -20 11 -35 36 -35c9 0 18 1 27 3v-42c-15 -5 -29 -7 -43 -7zM69 768l69 139h60l-87 -139h-42z" />
    <glyph glyph-name="lcaron" unicode="&#x13e;" horiz-adv-x="199" 
d="M134 -5c-48 0 -70 27 -70 71v647h50v-637c0 -20 11 -35 36 -35c9 0 18 1 27 3v-42c-15 -5 -29 -7 -43 -7zM148 568l4 145h54l-23 -145h-35z" />
    <glyph glyph-name="lcommaaccent" unicode="&#x13c;" horiz-adv-x="199" 
d="M134 -5c-48 0 -70 27 -70 71v647h50v-637c0 -20 11 -35 36 -35c9 0 18 1 27 3v-42c-15 -5 -29 -7 -43 -7zM73 -172l2 133h54l-19 -133h-37z" />
    <glyph glyph-name="ldot" unicode="&#x140;" horiz-adv-x="238" 
d="M134 -5c-48 0 -70 27 -70 71v647h50v-637c0 -20 11 -35 36 -35c9 0 18 1 27 3v-42c-15 -5 -29 -7 -43 -7zM181 339v98h50v-98h-50z" />
    <glyph glyph-name="lslash" unicode="&#x142;" horiz-adv-x="199" 
d="M23 248v62l41 61v342h50v-268l50 75v-62l-50 -75v-307c0 -20 11 -35 36 -35c9 0 18 1 27 3v-42c-15 -5 -29 -7 -43 -7c-48 0 -70 27 -70 71v243z" />
    <glyph glyph-name="nacute" unicode="&#x144;" horiz-adv-x="372" 
d="M66 0v518h46v-59h1c21 45 64 69 109 69c53 0 90 -35 90 -89v-439h-50v415c0 47 -23 70 -61 70c-50 0 -85 -59 -85 -113v-372h-50zM179 576l69 139h60l-87 -139h-42z" />
    <glyph glyph-name="ntilde" unicode="&#xf1;" horiz-adv-x="372" 
d="M66 0v518h46v-59h1c21 45 64 69 109 69c53 0 90 -35 90 -89v-439h-50v415c0 47 -23 70 -61 70c-50 0 -85 -59 -85 -113v-372h-50zM114 589l-35 5c5 41 28 75 66 75c35 0 70 -28 104 -28c19 0 26 13 32 35l34 -7c-5 -41 -30 -74 -66 -74c-37 0 -76 29 -104 29
c-20 0 -26 -12 -31 -35z" />
    <glyph glyph-name="ncaron" unicode="&#x148;" horiz-adv-x="372" 
d="M66 0v518h46v-59h1c21 45 64 69 109 69c53 0 90 -35 90 -89v-439h-50v415c0 47 -23 70 -61 70c-50 0 -85 -59 -85 -113v-372h-50zM165 579l-68 140h47l43 -93l43 93h45l-70 -140h-40z" />
    <glyph glyph-name="ncommaaccent" unicode="&#x146;" horiz-adv-x="372" 
d="M66 0v518h46v-59h1c21 45 64 69 109 69c53 0 90 -35 90 -89v-439h-50v415c0 47 -23 70 -61 70c-50 0 -85 -59 -85 -113v-372h-50zM161 -172l2 133h54l-19 -133h-37z" />
    <glyph glyph-name="ograve" unicode="&#xf2;" horiz-adv-x="356" 
d="M177 -9c-81 0 -127 50 -127 137v265c0 87 56 135 129 135c75 0 127 -45 127 -130v-268c0 -94 -54 -139 -129 -139zM179 35c61 0 76 46 76 91v272c0 46 -22 87 -78 87s-76 -42 -76 -88v-271c0 -46 21 -91 78 -91zM159 578l-87 139h60l69 -139h-42z" />
    <glyph glyph-name="oacute" unicode="&#xf3;" horiz-adv-x="356" 
d="M156 578l69 139h60l-87 -139h-42zM177 -9c-81 0 -127 50 -127 137v265c0 87 56 135 129 135c75 0 127 -45 127 -130v-268c0 -94 -54 -139 -129 -139zM179 35c61 0 76 46 76 91v272c0 46 -22 87 -78 87s-76 -42 -76 -88v-271c0 -46 21 -91 78 -91z" />
    <glyph glyph-name="ocircumflex" unicode="&#xf4;" horiz-adv-x="356" 
d="M94 579l70 139h40l68 -139h-47l-43 93l-43 -93h-45zM177 -9c-81 0 -127 50 -127 137v265c0 87 56 135 129 135c75 0 127 -45 127 -130v-268c0 -94 -54 -139 -129 -139zM179 35c61 0 76 46 76 91v272c0 46 -22 87 -78 87s-76 -42 -76 -88v-271c0 -46 21 -91 78 -91z" />
    <glyph glyph-name="odieresis" unicode="&#xf6;" horiz-adv-x="356" 
d="M100 596v109h48v-109h-48zM216 596v109h48v-109h-48zM177 -9c-81 0 -127 50 -127 137v265c0 87 56 135 129 135c75 0 127 -45 127 -130v-268c0 -94 -54 -139 -129 -139zM179 35c61 0 76 46 76 91v272c0 46 -22 87 -78 87s-76 -42 -76 -88v-271c0 -46 21 -91 78 -91z" />
    <glyph glyph-name="otilde" unicode="&#xf5;" horiz-adv-x="356" 
d="M177 -9c-81 0 -127 50 -127 137v265c0 87 56 135 129 135c75 0 127 -45 127 -130v-268c0 -94 -54 -139 -129 -139zM179 35c61 0 76 46 76 91v272c0 46 -22 87 -78 87s-76 -42 -76 -88v-271c0 -46 21 -91 78 -91zM100 589l-35 5c5 41 28 75 66 75c35 0 70 -28 104 -28
c19 0 26 13 32 35l34 -7c-5 -41 -30 -74 -66 -74c-37 0 -76 29 -104 29c-20 0 -26 -12 -31 -35z" />
    <glyph glyph-name="omacron" unicode="&#x14d;" horiz-adv-x="356" 
d="M177 -9c-81 0 -127 50 -127 137v265c0 87 56 135 129 135c75 0 127 -45 127 -130v-268c0 -94 -54 -139 -129 -139zM179 35c61 0 76 46 76 91v272c0 46 -22 87 -78 87s-76 -42 -76 -88v-271c0 -46 21 -91 78 -91zM90 597v46h176v-46h-176z" />
    <glyph glyph-name="obreve" unicode="&#x14f;" horiz-adv-x="356" 
d="M177 -9c-81 0 -127 50 -127 137v265c0 87 56 135 129 135c75 0 127 -45 127 -130v-268c0 -94 -54 -139 -129 -139zM179 35c61 0 76 46 76 91v272c0 46 -22 87 -78 87s-76 -42 -76 -88v-271c0 -46 21 -91 78 -91zM178 583c-66 0 -102 42 -103 113h41c4 -37 14 -76 65 -76
c42 0 60 33 60 76h40c-3 -77 -47 -113 -103 -113z" />
    <glyph glyph-name="ohungarumlaut" unicode="&#x151;" horiz-adv-x="356" 
d="M177 -9c-81 0 -127 50 -127 137v265c0 87 56 135 129 135c75 0 127 -45 127 -130v-268c0 -94 -54 -139 -129 -139zM179 35c61 0 76 46 76 91v272c0 46 -22 87 -78 87s-76 -42 -76 -88v-271c0 -46 21 -91 78 -91zM103 582l47 124h54l-60 -124h-41zM206 582l48 124h53
l-60 -124h-41z" />
    <glyph glyph-name="oslash" unicode="&#xf8;" horiz-adv-x="356" 
d="M98 -40l-35 11l19 56c-21 24 -32 58 -32 101v265c0 87 56 135 129 135c28 0 52 -6 72 -18l16 44l34 -11l-21 -59c17 -21 26 -50 26 -86v-268c0 -94 -54 -139 -129 -139c-25 0 -46 5 -64 13zM101 126c0 -12 1 -23 4 -34l129 369c-12 15 -31 24 -57 24
c-56 0 -76 -42 -76 -88v-271zM179 35c61 0 76 46 76 91v272c0 4 0 8 -1 12l-125 -359c12 -10 29 -16 50 -16z" />
    <glyph glyph-name="oslashacute" unicode="&#x1ff;" horiz-adv-x="356" 
d="M98 -40l-35 11l19 56c-21 24 -32 58 -32 101v265c0 87 56 135 129 135c28 0 52 -6 72 -18l16 44l34 -11l-21 -59c17 -21 26 -50 26 -86v-268c0 -94 -54 -139 -129 -139c-25 0 -46 5 -64 13zM101 126c0 -12 1 -23 4 -34l129 369c-12 15 -31 24 -57 24
c-56 0 -76 -42 -76 -88v-271zM179 35c61 0 76 46 76 91v272c0 4 0 8 -1 12l-125 -359c12 -10 29 -16 50 -16z" />
    <glyph glyph-name="oe" unicode="&#x153;" horiz-adv-x="545" 
d="M177 -9c-81 0 -127 50 -127 137v265c0 87 56 135 129 135c44 0 81 -16 103 -47c23 30 58 47 102 47c78 0 116 -55 116 -133v-146h-194v-107c0 -69 21 -106 91 -106c33 0 63 12 84 22l15 -38c-28 -18 -67 -29 -106 -29c-50 0 -87 14 -110 46c-23 -31 -60 -46 -103 -46z
M179 35c61 0 76 46 76 91v272c0 46 -22 87 -78 87s-76 -42 -76 -88v-271c0 -46 21 -91 78 -91zM306 291h146v107c0 41 -16 86 -73 86c-53 0 -73 -45 -73 -86v-107z" />
    <glyph glyph-name="racute" unicode="&#x155;" horiz-adv-x="250" 
d="M66 0v518h49v-57h1c21 47 57 61 92 61c7 0 15 0 21 -2v-51c-11 1 -22 2 -29 2c-50 0 -83 -31 -84 -89v-382h-50zM115 578l69 139h60l-87 -139h-42z" />
    <glyph glyph-name="rcaron" unicode="&#x159;" horiz-adv-x="250" 
d="M66 0v518h49v-57h1c21 47 57 61 92 61c7 0 15 0 21 -2v-51c-11 1 -22 2 -29 2c-50 0 -83 -31 -84 -89v-382h-50zM119 579l-68 140h47l43 -93l43 93h45l-70 -140h-40z" />
    <glyph glyph-name="rcommaaccent" unicode="&#x157;" horiz-adv-x="250" 
d="M66 0v518h49v-57h1c21 47 57 61 92 61c7 0 15 0 21 -2v-51c-11 1 -22 2 -29 2c-50 0 -83 -31 -84 -89v-382h-50zM65 -172l2 133h54l-19 -133h-37z" />
    <glyph glyph-name="sacute" unicode="&#x15b;" horiz-adv-x="304" 
d="M157 -8c-75 0 -116 50 -121 126h50c7 -53 25 -83 72 -83c39 0 64 23 64 71c0 44 -36 87 -63 121l-49 60c-36 46 -60 84 -60 132c0 58 36 108 113 108c61 0 105 -39 109 -121l-48 -2c-6 59 -25 81 -64 81c-40 0 -62 -27 -62 -62c0 -28 12 -57 45 -96l60 -72
c46 -59 67 -105 67 -147c0 -58 -36 -116 -113 -116zM135 578l69 139h60l-87 -139h-42z" />
    <glyph glyph-name="scircumflex" unicode="&#x15d;" horiz-adv-x="304" 
d="M157 -8c-75 0 -116 50 -121 126h50c7 -53 25 -83 72 -83c39 0 64 23 64 71c0 44 -36 87 -63 121l-49 60c-36 46 -60 84 -60 132c0 58 36 108 113 108c61 0 105 -39 109 -121l-48 -2c-6 59 -25 81 -64 81c-40 0 -62 -27 -62 -62c0 -28 12 -57 45 -96l60 -72
c46 -59 67 -105 67 -147c0 -58 -36 -116 -113 -116zM63 579l70 139h40l68 -139h-47l-43 93l-43 -93h-45z" />
    <glyph glyph-name="scaron" unicode="&#x161;" horiz-adv-x="304" 
d="M157 -8c-75 0 -116 50 -121 126h50c7 -53 25 -83 72 -83c39 0 64 23 64 71c0 44 -36 87 -63 121l-49 60c-36 46 -60 84 -60 132c0 58 36 108 113 108c61 0 105 -39 109 -121l-48 -2c-6 59 -25 81 -64 81c-40 0 -62 -27 -62 -62c0 -28 12 -57 45 -96l60 -72
c46 -59 67 -105 67 -147c0 -58 -36 -116 -113 -116zM131 579l-68 140h47l43 -93l43 93h45l-70 -140h-40z" />
    <glyph glyph-name="scommaaccent" unicode="&#x219;" horiz-adv-x="304" 
d="M157 -8c-75 0 -116 50 -121 126h50c7 -53 25 -83 72 -83c39 0 64 23 64 71c0 44 -36 87 -63 121l-49 60c-36 46 -60 84 -60 132c0 58 36 108 113 108c61 0 105 -39 109 -121l-48 -2c-6 59 -25 81 -64 81c-40 0 -62 -27 -62 -62c0 -28 12 -57 45 -96l60 -72
c46 -59 67 -105 67 -147c0 -58 -36 -116 -113 -116zM138 -172l2 133h54l-19 -133h-37z" />
    <glyph glyph-name="scedilla" unicode="&#x15f;" horiz-adv-x="304" 
d="M163 -179c-17 0 -42 2 -65 9v39c22 -5 40 -8 62 -8c25 0 42 7 42 27c0 19 -17 27 -49 29l-24 2l17 74c-68 4 -106 53 -110 125h50c7 -53 25 -83 72 -83c39 0 64 23 64 71c0 44 -36 87 -63 121l-49 60c-36 46 -60 84 -60 132c0 58 36 108 113 108c61 0 105 -39 109 -121
l-48 -2c-6 59 -25 81 -64 81c-40 0 -62 -27 -62 -62c0 -28 12 -57 45 -96l60 -72c46 -59 67 -105 67 -147c0 -53 -30 -105 -92 -114l-11 -48c40 -2 81 -15 81 -58c0 -39 -37 -67 -85 -67z" />
    <glyph glyph-name="germandbls" unicode="&#xdf;" horiz-adv-x="385" 
d="M239 -5c-35 0 -60 7 -76 16l13 40c19 -8 46 -14 61 -14c58 0 68 62 68 119c0 103 -61 163 -110 184v37h7c50 41 84 132 84 187c0 60 -26 113 -77 113c-59 0 -80 -60 -80 -116v-561h-50v476h-54v41h54v41c0 99 49 162 133 162c80 0 124 -64 124 -147
c0 -75 -30 -156 -90 -205v-2c67 -39 108 -119 108 -206c0 -84 -30 -165 -115 -165z" />
    <glyph glyph-name="tcaron" unicode="&#x165;" horiz-adv-x="245" 
d="M175 568l4 145h54l-23 -145h-35zM158 -6c-35 0 -71 15 -71 68v411h-55v44h55v118h49v-118h86v-44h-86v-397c0 -28 11 -38 32 -38c15 0 32 4 44 8v-41c-19 -7 -35 -11 -54 -11z" />
    <glyph glyph-name="tcommaaccent" unicode="&#x163;" horiz-adv-x="245" 
d="M158 -6c-35 0 -71 15 -71 68v411h-55v44h55v118h49v-118h86v-44h-86v-397c0 -28 11 -38 32 -38c15 0 32 4 44 8v-41c-19 -7 -35 -11 -54 -11zM102 -172l2 133h54l-19 -133h-37z" />
    <glyph glyph-name="uni021B" unicode="&#x21b;" horiz-adv-x="245" 
d="M158 -6c-35 0 -71 15 -71 68v411h-55v44h55v118h49v-118h86v-44h-86v-397c0 -28 11 -38 32 -38c15 0 32 4 44 8v-41c-19 -7 -35 -11 -54 -11zM102 -172l2 133h54l-19 -133h-37z" />
    <glyph glyph-name="tbar" unicode="&#x167;" horiz-adv-x="245" 
d="M55 276v37h32v160h-55v44h55v118h49v-118h86v-44h-86v-160h53v-37h-53v-200c0 -28 11 -38 32 -38c15 0 32 4 44 8v-41c-19 -7 -35 -11 -54 -11c-35 0 -71 15 -71 68v214h-32z" />
    <glyph glyph-name="ugrave" unicode="&#xf9;" horiz-adv-x="372" 
d="M149 -10c-52 0 -89 35 -89 90v438h50v-417c0 -46 22 -67 61 -67c50 0 85 59 85 113v371h50v-518h-46v60h-1c-22 -46 -65 -70 -110 -70zM169 578l-87 139h60l69 -139h-42z" />
    <glyph glyph-name="uacute" unicode="&#xfa;" horiz-adv-x="372" 
d="M164 578l69 139h60l-87 -139h-42zM149 -10c-52 0 -89 35 -89 90v438h50v-417c0 -46 22 -67 61 -67c50 0 85 59 85 113v371h50v-518h-46v60h-1c-22 -46 -65 -70 -110 -70z" />
    <glyph glyph-name="ucircumflex" unicode="&#xfb;" horiz-adv-x="372" 
d="M103 579l70 139h40l68 -139h-47l-43 93l-43 -93h-45zM149 -10c-52 0 -89 35 -89 90v438h50v-417c0 -46 22 -67 61 -67c50 0 85 59 85 113v371h50v-518h-46v60h-1c-22 -46 -65 -70 -110 -70z" />
    <glyph glyph-name="udieresis" unicode="&#xfc;" horiz-adv-x="372" 
d="M104 596v109h48v-109h-48zM220 596v109h48v-109h-48zM149 -10c-52 0 -89 35 -89 90v438h50v-417c0 -46 22 -67 61 -67c50 0 85 59 85 113v371h50v-518h-46v60h-1c-22 -46 -65 -70 -110 -70z" />
    <glyph glyph-name="utilde" unicode="&#x169;" horiz-adv-x="372" 
d="M149 -10c-52 0 -89 35 -89 90v438h50v-417c0 -46 22 -67 61 -67c50 0 85 59 85 113v371h50v-518h-46v60h-1c-22 -46 -65 -70 -110 -70zM103 589l-35 5c5 41 28 75 66 75c35 0 70 -28 104 -28c19 0 26 13 32 35l34 -7c-5 -41 -30 -74 -66 -74c-37 0 -76 29 -104 29
c-20 0 -26 -12 -31 -35z" />
    <glyph glyph-name="uring" unicode="&#x16f;" horiz-adv-x="372" 
d="M149 -10c-52 0 -89 35 -89 90v438h50v-417c0 -46 22 -67 61 -67c50 0 85 59 85 113v371h50v-518h-46v60h-1c-22 -46 -65 -70 -110 -70zM186 573c-50 0 -75 36 -75 74c0 43 30 79 75 79c49 0 75 -33 75 -74c0 -45 -31 -79 -75 -79zM186 602c26 0 43 18 43 47
c0 27 -14 48 -44 48c-27 0 -40 -20 -40 -49c0 -30 17 -46 41 -46z" />
    <glyph glyph-name="umacron" unicode="&#x16b;" horiz-adv-x="372" 
d="M149 -10c-52 0 -89 35 -89 90v438h50v-417c0 -46 22 -67 61 -67c50 0 85 59 85 113v371h50v-518h-46v60h-1c-22 -46 -65 -70 -110 -70zM98 597v46h176v-46h-176z" />
    <glyph glyph-name="ubreve" unicode="&#x16d;" horiz-adv-x="372" 
d="M149 -10c-52 0 -89 35 -89 90v438h50v-417c0 -46 22 -67 61 -67c50 0 85 59 85 113v371h50v-518h-46v60h-1c-22 -46 -65 -70 -110 -70zM186 583c-66 0 -102 42 -103 113h41c4 -37 14 -76 65 -76c42 0 60 33 60 76h40c-3 -77 -47 -113 -103 -113z" />
    <glyph glyph-name="uhungarumlaut" unicode="&#x171;" horiz-adv-x="372" 
d="M149 -10c-52 0 -89 35 -89 90v438h50v-417c0 -46 22 -67 61 -67c50 0 85 59 85 113v371h50v-518h-46v60h-1c-22 -46 -65 -70 -110 -70zM110 582l47 124h54l-60 -124h-41zM213 582l48 124h53l-60 -124h-41z" />
    <glyph glyph-name="uogonek" unicode="&#x173;" horiz-adv-x="372" 
d="M289 -178c-41 0 -77 24 -77 74c0 45 22 81 48 104v60h-1c-22 -46 -65 -70 -110 -70c-52 0 -89 35 -89 90v438h50v-417c0 -46 22 -67 61 -67c50 0 85 59 85 113v371h50v-518h-6c-29 -20 -45 -49 -45 -86c0 -30 18 -48 43 -48c15 0 27 4 37 9l16 -36
c-13 -8 -31 -17 -62 -17z" />
    <glyph glyph-name="wacute" unicode="&#x1e83;" horiz-adv-x="474" 
d="M111 -1l-86 519h53l60 -406h3l72 406h54l73 -406h3l59 406h47l-85 -519h-48l-76 428h-3l-78 -428h-48zM221 578l69 139h60l-87 -139h-42z" />
    <glyph glyph-name="wcircumflex" unicode="&#x175;" horiz-adv-x="474" 
d="M111 -1l-86 519h53l60 -406h3l72 406h54l73 -406h3l59 406h47l-85 -519h-48l-76 428h-3l-78 -428h-48zM148 579l70 139h40l68 -139h-47l-43 93l-43 -93h-45z" />
    <glyph glyph-name="wgrave" unicode="&#x1e81;" horiz-adv-x="474" 
d="M111 -1l-86 519h53l60 -406h3l72 406h54l73 -406h3l59 406h47l-85 -519h-48l-76 428h-3l-78 -428h-48zM217 578l-87 139h60l69 -139h-42z" />
    <glyph glyph-name="wdieresis" unicode="&#x1e85;" horiz-adv-x="474" 
d="M111 -1l-86 519h53l60 -406h3l72 406h54l73 -406h3l59 406h47l-85 -519h-48l-76 428h-3l-78 -428h-48zM155 596v109h48v-109h-48zM271 596v109h48v-109h-48z" />
    <glyph glyph-name="yacute" unicode="&#xfd;" horiz-adv-x="310" 
d="M69 -173c-13 0 -29 1 -47 6l7 43c13 -3 24 -5 37 -5c21 0 41 8 52 52l20 91l-115 504h51l87 -399h2l78 399h47l-121 -565c-16 -83 -43 -126 -98 -126zM147 578l69 139h60l-87 -139h-42z" />
    <glyph glyph-name="ycircumflex" unicode="&#x177;" horiz-adv-x="310" 
d="M69 -173c-13 0 -29 1 -47 6l7 43c13 -3 24 -5 37 -5c21 0 41 8 52 52l20 91l-115 504h51l87 -399h2l78 399h47l-121 -565c-16 -83 -43 -126 -98 -126zM73 579l70 139h40l68 -139h-47l-43 93l-43 -93h-45z" />
    <glyph glyph-name="ygrave" unicode="&#x1ef3;" horiz-adv-x="310" 
d="M69 -173c-13 0 -29 1 -47 6l7 43c13 -3 24 -5 37 -5c21 0 41 8 52 52l20 91l-115 504h51l87 -399h2l78 399h47l-121 -565c-16 -83 -43 -126 -98 -126zM148 578l-87 139h60l69 -139h-42z" />
    <glyph glyph-name="ydieresis" unicode="&#xff;" horiz-adv-x="310" 
d="M69 -173c-13 0 -29 1 -47 6l7 43c13 -3 24 -5 37 -5c21 0 41 8 52 52l20 91l-115 504h51l87 -399h2l78 399h47l-121 -565c-16 -83 -43 -126 -98 -126zM79 596v109h48v-109h-48zM195 596v109h48v-109h-48z" />
    <glyph glyph-name="ij" unicode="&#x133;" horiz-adv-x="339" 
d="M192 -170c-14 0 -24 1 -35 3v41h23c32 0 43 20 43 53v591h50v-599c0 -51 -26 -89 -81 -89zM66 0v518h50v-518h-50zM223 619v98h50v-98h-50zM66 619v98h50v-98h-50z" />
    <glyph glyph-name="zacute" unicode="&#x17a;" horiz-adv-x="277" 
d="M31 0v34l163 442h-159v42h213v-40l-160 -436h162v-42h-219zM120 578l69 139h60l-87 -139h-42z" />
    <glyph glyph-name="zcaron" unicode="&#x17e;" horiz-adv-x="277" 
d="M31 0v34l163 442h-159v42h213v-40l-160 -436h162v-42h-219zM118 579l-68 140h47l43 -93l43 93h45l-70 -140h-40z" />
    <glyph glyph-name="zdotaccent" unicode="&#x17c;" horiz-adv-x="277" 
d="M31 0v34l163 442h-159v42h213v-40l-160 -436h162v-42h-219zM121 596v111h49v-111h-49z" />
    <glyph glyph-name="eng" unicode="&#x14b;" horiz-adv-x="372" 
d="M231 -170c-14 0 -24 1 -35 3v41h23c32 0 43 20 43 53v488c0 47 -23 70 -61 70c-50 0 -85 -59 -85 -113v-372h-50v518h46v-59h1c21 45 64 69 109 69c53 0 90 -35 90 -89v-520c0 -51 -26 -89 -81 -89z" />
    <glyph glyph-name="eth" unicode="&#xf0;" horiz-adv-x="346" 
d="M64 588l-14 33l83 21l-35 61l48 17l37 -66l74 19l13 -33l-68 -18l83 -143c12 -20 20 -50 20 -82v-269c0 -93 -50 -137 -129 -137c-80 0 -126 46 -126 134v268c0 84 53 131 125 132c3 0 19 -1 31 -7l-54 92zM178 35c63 0 76 43 76 88v274c0 46 -18 85 -73 85
c-56 0 -80 -40 -80 -86v-277c0 -43 21 -84 77 -84z" />
    <glyph glyph-name="thorn" unicode="&#xfe;" horiz-adv-x="346" 
d="M56 -162v875h49v-251h2c21 50 67 66 99 66c69 0 99 -50 99 -103v-320c0 -71 -48 -114 -108 -114c-36 0 -74 18 -90 56h-1v-209h-50zM185 35c41 0 69 26 69 77v298c0 40 -20 75 -69 75c-45 0 -79 -43 -79 -105v-250c0 -57 34 -95 79 -95z" />
    <glyph glyph-name="ordfeminine" unicode="&#xaa;" horiz-adv-x="252" 
d="M99 396c-34 0 -64 28 -64 91c0 60 38 96 92 96h28v62c0 20 -13 33 -36 33s-38 -13 -38 -32v-31h-39v29c0 42 31 67 80 67c48 0 75 -25 75 -66v-172c0 -20 1 -58 2 -71h-39s-1 10 -3 32c-13 -28 -38 -38 -58 -38zM113 431c24 0 42 23 42 47v76h-28c-27 0 -51 -15 -51 -62
c0 -44 17 -61 37 -61zM44 320v41h154v-41h-154z" />
    <glyph glyph-name="ordmasculine" unicode="&#xba;" horiz-adv-x="245" 
d="M121 397c-53 0 -83 28 -83 83v148c0 53 36 81 85 81c48 0 83 -27 83 -80v-150c0 -56 -35 -82 -85 -82zM122 431c33 0 42 21 42 46v152c0 25 -11 45 -42 45s-42 -20 -42 -45v-152c0 -25 11 -46 42 -46zM46 320v40h154v-40h-154z" />
    <glyph glyph-name="ampersand" unicode="&#x26;" horiz-adv-x="458" 
d="M192 -12c-105 0 -149 90 -149 192c0 81 27 162 112 210c-36 58 -66 126 -66 186c0 70 33 150 133 150c84 0 124 -68 124 -140c0 -92 -42 -161 -124 -209c1 -3 114 -198 115 -200c13 43 24 84 33 136l45 -6c-10 -62 -28 -122 -52 -182c1 -2 71 -122 72 -125h-59l-46 77
c-30 -52 -79 -89 -138 -89zM198 36c48 0 87 41 110 82c-2 3 -130 227 -131 230c-63 -38 -80 -103 -80 -166c0 -70 31 -146 101 -146zM201 414c67 41 94 94 94 169c0 55 -28 101 -77 101c-55 0 -77 -50 -77 -104c0 -47 26 -103 60 -166z" />
    <glyph glyph-name="grave" unicode="`" horiz-adv-x="206" 
d="M116 578l-87 139h60l69 -139h-42z" />
    <glyph glyph-name="acute" unicode="&#xb4;" horiz-adv-x="207" 
d="M55 578l69 139h60l-87 -139h-42z" />
    <glyph glyph-name="circumflex" unicode="&#x2c6;" horiz-adv-x="275" 
d="M50 579l70 139h40l68 -139h-47l-43 93l-43 -93h-45z" />
    <glyph glyph-name="tilde" unicode="&#x2dc;" horiz-adv-x="308" 
d="M75 589l-35 5c5 41 28 75 66 75c35 0 70 -28 104 -28c19 0 26 13 32 35l34 -7c-5 -41 -30 -74 -66 -74c-37 0 -76 29 -104 29c-20 0 -26 -12 -31 -35z" />
    <glyph glyph-name="macron" unicode="&#xaf;" horiz-adv-x="296" 
d="M60 597v46h176v-46h-176z" />
    <glyph glyph-name="breve" unicode="&#x2d8;" horiz-adv-x="291" 
d="M146 583c-66 0 -102 42 -103 113h41c4 -37 14 -76 65 -76c42 0 60 33 60 76h40c-3 -77 -47 -113 -103 -113z" />
    <glyph glyph-name="dotaccent" unicode="&#x2d9;" horiz-adv-x="163" 
d="M57 596v111h49v-111h-49z" />
    <glyph glyph-name="dieresis" unicode="&#xa8;" horiz-adv-x="277" 
d="M57 596v109h48v-109h-48zM173 596v109h48v-109h-48z" />
    <glyph glyph-name="ring" unicode="&#x2da;" horiz-adv-x="231" 
d="M118 573c-50 0 -75 36 -75 74c0 43 30 79 75 79c49 0 75 -33 75 -74c0 -45 -31 -79 -75 -79zM118 602c26 0 43 18 43 47c0 27 -14 48 -44 48c-27 0 -40 -20 -40 -49c0 -30 17 -46 41 -46z" />
    <glyph glyph-name="ringacute" horiz-adv-x="231" 
d="M118 573c-52 0 -75 37 -75 73c0 19 7 38 17 53l64 94l52 -8l-55 -62c49 -2 72 -34 72 -72c0 -44 -31 -78 -75 -78zM118 601c25 0 43 18 43 48c0 26 -14 47 -43 47c-27 0 -41 -20 -41 -49c0 -30 17 -46 41 -46z" />
    <glyph glyph-name="hungarumlaut" unicode="&#x2dd;" horiz-adv-x="311" 
d="M56 582l47 124h54l-60 -124h-41zM159 582l48 124h53l-60 -124h-41z" />
    <glyph glyph-name="caron" unicode="&#x2c7;" horiz-adv-x="275" 
d="M118 579l-68 140h47l43 -93l43 93h45l-70 -140h-40z" />
    <glyph glyph-name="caronSlovak" unicode="&#xe413;" horiz-adv-x="157" 
d="M50 568l4 145h54l-23 -145h-35z" />
    <glyph glyph-name="commatop" horiz-adv-x="158" 
d="M55 596v64l22 63h26l-15 -60h15v-67h-48z" />
    <glyph glyph-name="commaaccent" unicode="&#xe414;" horiz-adv-x="155" 
d="M51 -172l2 133h54l-19 -133h-37z" />
    <glyph glyph-name="commaaccent" unicode="&#xf6c3;" horiz-adv-x="155" 
d="M51 -172l2 133h54l-19 -133h-37z" />
    <glyph glyph-name="cedilla" unicode="&#xb8;" horiz-adv-x="246" 
d="M108 -179c-17 0 -42 2 -65 9v39c22 -5 40 -8 62 -8c25 0 42 7 42 27c0 19 -17 27 -49 29l-24 2l21 91h32l-15 -64c40 -2 81 -15 81 -58c0 -39 -37 -67 -85 -67z" />
    <glyph glyph-name="ogonek" unicode="&#x2db;" horiz-adv-x="238" 
d="M129 -179c-41 0 -77 24 -77 74c0 60 40 103 74 124l19 -17c-32 -21 -50 -50 -50 -89c0 -30 18 -48 43 -48c15 0 27 4 37 9l16 -36c-13 -8 -31 -17 -62 -17z" />
    <glyph glyph-name="ogonekplus" horiz-adv-x="238" 
d="M129 -179c-41 0 -77 24 -77 74c0 60 39 105 73 126l15 -9c-33 -23 -45 -60 -45 -99c0 -30 18 -48 43 -48c15 0 27 4 37 9l16 -36c-13 -8 -31 -17 -62 -17z" />
    <glyph glyph-name="altogonek" horiz-adv-x="214" 
d="M125 -178c-41 0 -73 23 -73 73c0 60 39 105 73 126l21 -15c-32 -21 -51 -54 -51 -93c0 -30 12 -48 37 -48c9 0 19 3 29 8l14 -36c-13 -8 -29 -15 -50 -15z" />
    <glyph glyph-name="period" unicode="." horiz-adv-x="154" 
d="M51 0v100h53v-100h-53z" />
    <glyph glyph-name="comma" unicode="," horiz-adv-x="154" 
d="M51 -94l18 97h-18v97h53v-94l-24 -100h-29z" />
    <glyph glyph-name="colon" unicode=":" horiz-adv-x="154" 
d="M51 0v100h53v-100h-53zM52 409v100h52v-100h-52z" />
    <glyph glyph-name="semicolon" unicode=";" horiz-adv-x="155" 
d="M51 -94l18 97h-17v97h52v-94l-24 -100h-29zM52 409v100h52v-100h-52z" />
    <glyph glyph-name="ellipsis" unicode="&#x2026;" horiz-adv-x="442" 
d="M51 0v100h51v-100h-51zM195 0v100h52v-100h-52zM340 0v100h52v-100h-52z" />
    <glyph glyph-name="exclam" unicode="!" horiz-adv-x="171" 
d="M70 185l-9 258v271h50v-271l-7 -258h-34zM60 0v100h53v-100h-53z" />
    <glyph glyph-name="exclamdown" unicode="&#xa1;" horiz-adv-x="171" 
d="M103 374l9 -258v-271h-50v271l7 258h34zM113 559v-100h-53v100h53z" />
    <glyph glyph-name="question" unicode="?" horiz-adv-x="324" 
d="M129 186v40c3 78 27 122 53 165c28 44 52 86 52 156c0 62 -16 132 -74 132c-43 0 -72 -39 -72 -104v-46h-45v39c0 100 42 156 121 156c83 0 120 -72 120 -173c1 -83 -33 -136 -62 -182c-23 -38 -45 -75 -46 -127v-56h-47zM128 0v100h53v-100h-53z" />
    <glyph glyph-name="questiondown" unicode="&#xbf;" horiz-adv-x="325" 
d="M199 373v-40c-3 -78 -27 -122 -53 -165c-28 -44 -52 -86 -52 -156c0 -62 16 -132 74 -132c43 0 72 39 72 104v46h45v-39c0 -100 -42 -156 -121 -156c-83 0 -120 72 -120 173c-1 83 33 136 62 182c23 38 45 75 46 127v56h47zM200 559v-100h-53v100h53z" />
    <glyph glyph-name="quoteleft" unicode="&#x2018;" horiz-adv-x="151" 
d="M49 525v93l20 97h30l-16 -93h17v-97h-51z" />
    <glyph glyph-name="quoteright" unicode="&#x2019;" horiz-adv-x="152" 
d="M52 524l15 92h-16v98h51v-94l-21 -96h-29z" />
    <glyph glyph-name="quotedblleft" unicode="&#x201c;" horiz-adv-x="266" 
d="M49 525v93l20 97h30l-16 -93h17v-97h-51zM164 525v93l22 97h28l-15 -93h17v-97h-52z" />
    <glyph glyph-name="quotedblright" unicode="&#x201d;" horiz-adv-x="266" 
d="M52 524l15 92h-17v98h52v-94l-21 -96h-29zM167 524l15 92h-17v98h52v-94l-21 -96h-29z" />
    <glyph glyph-name="quotesinglbase" unicode="&#x201a;" horiz-adv-x="151" 
d="M57 -53l5 56l-12 36l14 62l38 -36l-7 -97l-22 -59z" />
    <glyph glyph-name="quotedblbase" unicode="&#x201e;" horiz-adv-x="266" 
d="M52 -91l15 94h-17v98h52v-95l-21 -97h-29zM167 -91l15 94h-17v98h52v-95l-21 -97h-29z" />
    <glyph glyph-name="guilsinglleft" unicode="&#x2039;" horiz-adv-x="191" 
d="M117 142l-88 134l85 136l34 -21l-61 -114l64 -115z" />
    <glyph glyph-name="guilsinglright" unicode="&#x203a;" horiz-adv-x="191" 
d="M65 142l-34 21l61 114l-63 114l34 21l88 -134z" />
    <glyph glyph-name="guillemotleft" unicode="&#xab;" horiz-adv-x="314" 
d="M110 142l-88 134l86 136l33 -21l-61 -114l64 -115zM235 142l-87 134l86 135l33 -21l-61 -113l64 -114z" />
    <glyph glyph-name="guillemotright" unicode="&#xbb;" horiz-adv-x="314" 
d="M58 143l-34 20l61 114l-63 114l34 20l88 -133zM184 142l-34 21l61 114l-64 114l35 21l88 -134z" />
    <glyph glyph-name="slash" unicode="/" horiz-adv-x="230" 
d="M-6 -169l174 885h42l-171 -885h-45z" />
    <glyph glyph-name="backslash" unicode="\" horiz-adv-x="230" 
d="M187 -169l-173 885h42l175 -885h-44z" />
    <glyph glyph-name="bar" unicode="|" horiz-adv-x="225" 
d="M93 -104v818h39v-818h-39z" />
    <glyph glyph-name="brokenbar" unicode="&#xa6;" horiz-adv-x="246" 
d="M94 -43v353h41v-353h-41zM94 381v338h41v-338h-41z" />
    <glyph glyph-name="bullet" unicode="&#x2022;" horiz-adv-x="345" 
d="M173 235c-62 0 -112 50 -112 111s50 111 112 111c60 0 110 -50 110 -111s-49 -111 -110 -111z" />
    <glyph glyph-name="periodcentered" unicode="&#xb7;" horiz-adv-x="154" 
d="M51 285v99h53v-99h-53z" />
    <glyph glyph-name="hyphen" unicode="-" horiz-adv-x="219" 
d="M28 274v48h162v-48h-162z" />
    <glyph glyph-name="endash" unicode="&#x2013;" horiz-adv-x="358" 
d="M0 278v42h358v-42h-358z" />
    <glyph glyph-name="emdash" unicode="&#x2014;" horiz-adv-x="600" 
d="M0 278v42h600v-42h-600z" />
    <glyph glyph-name="parenleft" unicode="(" horiz-adv-x="177" 
d="M134 -172c-61 123 -89 313 -89 449c0 145 28 317 89 445l33 -3c-46 -156 -74 -252 -74 -443c0 -158 29 -303 74 -444z" />
    <glyph glyph-name="parenright" unicode=")" horiz-adv-x="177" 
d="M42 -172l-33 4c46 141 74 286 74 444c0 191 -28 287 -73 443l32 3c61 -128 90 -300 90 -445c0 -136 -28 -326 -90 -449z" />
    <glyph glyph-name="bracketleft" unicode="[" horiz-adv-x="195" 
d="M52 -168v881h126v-37h-78v-807h78v-37h-126z" />
    <glyph glyph-name="bracketright" unicode="]" horiz-adv-x="195" 
d="M17 -168v38h78v806h-78v37h127v-881h-127z" />
    <glyph glyph-name="braceleft" unicode="{" horiz-adv-x="205" 
d="M115 -168c-34 0 -55 18 -55 55v345c0 26 -7 43 -32 45v40c26 4 32 20 32 42v293c0 37 21 61 56 61h71v-36h-63c-11 0 -16 -6 -16 -24v-289c0 -29 -9 -53 -36 -64v-3c26 -11 36 -33 36 -64v-341c0 -19 5 -24 16 -24h63v-36h-72z" />
    <glyph glyph-name="braceright" unicode="}" horiz-adv-x="205" 
d="M14 -168v36h63c11 0 17 5 17 24v341c0 31 10 53 36 64v3c-27 11 -36 35 -36 64v290c0 18 -6 24 -17 24h-63v36h72c35 0 55 -24 55 -61v-294c0 -22 6 -38 32 -42v-40c-25 -2 -32 -19 -32 -45v-345c0 -37 -20 -55 -55 -55h-72z" />
    <glyph glyph-name="asterisk" unicode="*" horiz-adv-x="297" 
d="M85 468l-31 21l58 88l-89 55l19 31l89 -53v104h37v-104l87 53l20 -31l-90 -55l59 -88l-31 -21l-64 93z" />
    <glyph glyph-name="dagger" unicode="&#x2020;" horiz-adv-x="362" 
d="M158 -108v606h-116v43h116v173h47v-173h115v-43h-115v-606h-47z" />
    <glyph glyph-name="daggerdbl" unicode="&#x2021;" horiz-adv-x="362" 
d="M158 -108v188h-116v44h116v374h-116v43h116v173h47v-173h115v-43h-115v-374h115v-44h-115v-188h-47z" />
    <glyph glyph-name="section" unicode="&#xa7;" horiz-adv-x="357" 
d="M178 -40c-64 0 -139 34 -139 132v30h44v-22c0 -64 40 -100 98 -100c61 0 91 43 91 94c0 58 -36 83 -73 100c0 0 -22 13 -59 25c-49 22 -95 59 -95 126c0 46 26 90 71 122c-50 31 -69 68 -69 120c0 70 43 129 133 129c81 0 128 -49 128 -125v-31h-42v27
c0 55 -32 89 -87 89c-51 0 -87 -29 -87 -86c0 -48 32 -79 64 -96l63 -31c45 -23 96 -59 96 -125c0 -48 -23 -92 -69 -121c49 -24 76 -70 74 -122c0 -79 -57 -135 -142 -135zM207 239c35 17 62 49 62 96c0 44 -34 69 -62 83c0 0 -53 25 -55 26c-28 -15 -61 -50 -61 -97
s36 -73 61 -83z" />
    <glyph glyph-name="paragraph" unicode="&#xb6;" horiz-adv-x="421" 
d="M177 -64v319c-92 19 -133 107 -133 218c0 136 50 240 163 240h181v-38h-54v-739h-37v739h-83v-739h-37z" />
    <glyph glyph-name="underscore" unicode="_" horiz-adv-x="370" 
d="M0 -104v44h370v-44h-370z" />
    <glyph glyph-name="quotesingle" unicode="'" horiz-adv-x="144" 
d="M56 524l-9 100v90h50v-90l-8 -100h-33z" />
    <glyph glyph-name="quotedbl" unicode="&#x22;" horiz-adv-x="258" 
d="M56 524l-9 100v90h50v-90l-8 -100h-33zM169 524l-8 100v90h50v-90l-8 -100h-34z" />
    <glyph glyph-name="at" unicode="@" horiz-adv-x="668" 
d="M348 -78c-67 0 -127 16 -174 49c-85 54 -134 156 -133 297c0 232 125 402 323 402c141 0 265 -95 265 -304c0 -190 -106 -291 -214 -299h-40l9 63h-2c-32 -56 -78 -71 -110 -71c-57 0 -84 35 -84 80c0 8 1 15 2 22c0 4 26 173 39 258c12 72 67 112 123 112
c36 0 71 -17 80 -55h1l10 52h47l-66 -424c98 4 167 126 167 259c0 188 -102 275 -229 275c-181 0 -283 -163 -283 -367c0 -130 41 -227 123 -277c41 -25 92 -39 151 -39c54 0 101 8 150 22l5 -29c-46 -17 -102 -26 -160 -26zM295 100c46 0 89 49 100 109l28 186
c1 7 2 14 2 19c0 50 -28 77 -67 77c-45 0 -75 -31 -84 -83l-34 -232c-1 -6 -2 -16 -2 -23c0 -31 14 -53 57 -53z" />
    <glyph glyph-name="copyright" unicode="&#xa9;" horiz-adv-x="680" 
d="M340 83c-82 0 -127 49 -127 131v269c0 82 47 134 128 134c80 0 120 -49 120 -112v-84h-48v81c0 31 -17 67 -71 67c-59 0 -76 -43 -76 -89v-261c0 -50 20 -87 75 -87c57 0 72 40 72 69v78h48v-79c0 -66 -41 -117 -121 -117zM340 -24c-203 0 -296 164 -296 377
c0 204 105 373 296 373c199 0 296 -177 296 -373c0 -206 -97 -377 -296 -377zM342 11c153 0 254 134 254 342c0 212 -103 340 -256 340c-155 0 -255 -132 -255 -340c0 -215 101 -342 257 -342z" />
    <glyph glyph-name="registered" unicode="&#xae;" horiz-adv-x="387" 
d="M196 316c-104 0 -161 96 -161 212c0 122 61 213 164 213c97 0 162 -89 162 -213c0 -115 -59 -212 -165 -212zM196 345c74 0 131 68 131 183s-60 185 -131 185c-69 0 -129 -69 -129 -185s60 -184 129 -183zM137 391v279h60c45 0 68 -30 68 -80c0 -37 -15 -65 -38 -74
l45 -125h-37l-41 118h-23v-118h-34zM171 538h24c25 0 35 17 35 49c0 26 -10 52 -36 52h-23v-101z" />
    <glyph glyph-name="trademark" unicode="&#x2122;" horiz-adv-x="441" 
d="M213 392v322h43l51 -143l50 143h42v-322h-34v250l-45 -128h-27l-46 129v-251h-34zM84 392v290h-60v32h156v-32h-60v-290h-36z" />
    <glyph glyph-name="Euro" unicode="&#x20ac;" horiz-adv-x="423" 
d="M241 -9c-96 0 -155 54 -155 145v138h-53v41h53v90h-53v40h53v127c0 87 56 153 155 153c96 0 146 -62 146 -133v-100h-47v93c0 57 -32 95 -101 95c-75 0 -100 -51 -100 -111v-124h153v-40h-153v-90h153v-41h-153v-127c0 -68 35 -111 102 -111c71 0 99 46 99 99v84h47v-88
c0 -82 -54 -140 -146 -140z" />
    <glyph glyph-name="dollar" unicode="$" horiz-adv-x="341" 
d="M158 -34v60c-71 8 -119 58 -126 147l48 2c7 -68 35 -110 98 -110s86 53 86 103c0 43 -21 93 -57 133l-87 98c-40 47 -74 97 -74 149c0 68 40 122 112 130v69h42v-68c59 -7 102 -43 108 -133l-44 -1c-5 72 -42 96 -88 96c-49 0 -83 -28 -83 -89c0 -42 30 -84 66 -126
l78 -85c45 -56 74 -104 74 -168c0 -81 -40 -136 -111 -146v-61h-42z" />
    <glyph glyph-name="cent" unicode="&#xa2;" horiz-adv-x="331" 
d="M149 -54v79c-69 6 -105 54 -105 133v247c0 80 42 124 105 131v82h45v-82c65 -9 95 -56 95 -110v-56h-47v57c0 30 -15 68 -71 68c-58 0 -75 -42 -75 -85v-255c0 -46 16 -90 75 -90c63 0 71 47 71 75v60h47v-65c0 -58 -32 -102 -95 -109v-80h-45z" />
    <glyph glyph-name="sterling" unicode="&#xa3;" horiz-adv-x="386" 
d="M38 0v45h52v299h-47v42h47v204c0 94 64 133 137 133c77 0 121 -46 121 -111v-66h-48v61c0 51 -32 73 -77 73c-37 0 -80 -16 -80 -88v-206h128v-42h-128v-299h210l-10 -45h-305z" />
    <glyph glyph-name="florin" unicode="&#x192;" horiz-adv-x="267" 
d="M39 -169c-13 0 -25 1 -36 3l2 45c3 0 18 -1 23 -1c34 0 42 21 45 55l38 516h-57l2 45h57l10 132c5 57 40 96 97 96c13 0 29 -1 43 -5l-3 -43c-10 2 -23 3 -35 3c-26 0 -46 -16 -50 -51l-10 -132h68l-3 -45h-67l-38 -524c-4 -53 -28 -94 -86 -94z" />
    <glyph glyph-name="yen" unicode="&#xa5;" horiz-adv-x="341" 
d="M145 0v283h-105v40h102l-127 391h55l104 -328l101 328h51l-124 -391h100v-40h-105v-283h-52z" />
    <glyph glyph-name="numbersign" unicode="#" horiz-adv-x="398" 
d="M73 -2l19 201h-65l3 40h66l28 247h-69l4 39h67l23 191h38l-21 -191h104l20 191h39l-20 -191h66l-3 -39h-66l-27 -247h67l-2 -40h-68l-20 -201h-41l21 201h-103l-20 -201h-40zM137 239h103l27 247h-103z" />
    <glyph glyph-name="numbersign.LP" unicode="&#xe533;" 
d="M71 -2l20 201h-65l4 40h65l27 247h-67l4 39h66l22 191h39l-21 -191h103l21 191h39l-20 -191h65l-4 -39h-64l-27 -247h65l-2 -40h-67l-20 -201h-40l20 201h-103l-20 -201h-40zM135 239h103l28 247h-104z" />
    <glyph glyph-name="zero" unicode="0" horiz-adv-x="380" 
d="M189 -9c-83 0 -139 50 -139 139v461c0 88 67 133 142 133c76 0 138 -43 138 -129v-466c0 -93 -62 -138 -141 -138zM192 38c62 0 85 44 85 89v467c0 43 -29 85 -86 85c-59 0 -87 -42 -87 -85v-468c0 -44 28 -88 88 -88z" />
    <glyph glyph-name="one" unicode="1" horiz-adv-x="238" 
d="M101 0v656l-59 -20l-6 39l84 38h33v-713h-52z" />
    <glyph glyph-name="two" unicode="2" horiz-adv-x="329" 
d="M41 0v35l89 166c68 129 102 232 102 341v14c-2 68 -19 122 -74 122c-50 0 -71 -43 -71 -88v-43h-49v33c0 86 45 144 124 144c82 0 123 -58 123 -170c0 -150 -49 -261 -113 -380l-68 -127v-1h190v-46h-253z" />
    <glyph glyph-name="three" unicode="3" horiz-adv-x="340" 
d="M166 -9c-103 0 -132 71 -132 156v25h51v-28c0 -61 28 -106 80 -106c56 0 82 42 82 160s-55 148 -95 148h-44v48h44c56 0 85 54 85 150c0 102 -34 135 -77 135c-48 0 -72 -35 -72 -98v-32h-49v30c0 101 49 145 126 145c95 0 125 -90 125 -176c0 -78 -21 -153 -79 -173v-2
c63 -20 90 -108 90 -181c0 -134 -56 -201 -135 -201z" />
    <glyph glyph-name="four" unicode="4" horiz-adv-x="367" 
d="M220 0v195h-188v45l173 473h53l-177 -471h139v166l49 42v-208h60v-47h-60v-195h-49z" />
    <glyph glyph-name="five" unicode="5" horiz-adv-x="361" 
d="M177 -9c-92 0 -129 65 -129 140v41h50v-33c0 -56 30 -100 80 -100c47 0 84 39 84 122v134c0 76 -29 111 -79 111c-35 0 -62 -24 -79 -50l-45 2l14 355h222v-46h-179c0 -3 -2 -132 -9 -254c24 25 53 39 92 39c62 0 114 -42 114 -137v-155c0 -101 -51 -169 -136 -169z" />
    <glyph glyph-name="six" unicode="6" horiz-adv-x="366" 
d="M180 -9c-83 0 -130 59 -130 142v454c0 92 59 137 136 137c80 0 125 -51 125 -117v-58h-49v49c0 42 -24 81 -78 81c-60 0 -81 -48 -81 -91v-202c23 35 64 52 100 52c65 0 113 -40 113 -113v-199c0 -87 -56 -135 -136 -135zM184 37c60 0 80 47 80 86v195
c0 50 -29 75 -73 75c-55 0 -88 -48 -88 -93v-175c0 -40 25 -88 81 -88z" />
    <glyph glyph-name="seven" unicode="7" horiz-adv-x="321" 
d="M98 0c2 287 68 532 140 666h-202v47h257v-40c-102 -174 -142 -447 -144 -673h-51z" />
    <glyph glyph-name="eight" unicode="8" horiz-adv-x="359" 
d="M177 -8c-81 0 -133 50 -133 131v139c0 51 28 90 68 108c-40 18 -61 60 -61 105v123c0 84 61 126 131 126c69 0 128 -38 128 -120v-126c0 -48 -22 -88 -63 -107c38 -15 68 -52 68 -105v-142c0 -88 -58 -132 -138 -132zM180 37c56 0 82 38 82 83v147c0 48 -37 83 -82 83
c-48 0 -83 -36 -83 -82v-149c0 -43 31 -82 83 -82zM181 390c49 0 79 42 79 84v131c0 44 -35 75 -80 75c-46 0 -79 -34 -79 -76v-130c0 -46 36 -84 80 -84z" />
    <glyph glyph-name="nine" unicode="9" horiz-adv-x="365" 
d="M180 -9c-79 0 -126 50 -126 124v57h49v-48c0 -51 27 -86 78 -86c53 0 81 43 81 94v204c-23 -38 -63 -55 -99 -55c-66 0 -113 41 -113 113v194c0 87 56 136 135 136c83 0 130 -58 130 -140v-442c0 -98 -58 -151 -135 -151zM174 324c45 0 88 44 88 90v179
c0 39 -25 88 -81 88c-60 0 -80 -52 -80 -90v-189c0 -50 30 -78 73 -78z" />
    <glyph glyph-name="zero.LT" unicode="&#xe53f;" 
d="M196 -9c-83 0 -139 50 -139 139v461c0 88 67 133 142 133c76 0 138 -43 138 -129v-466c0 -93 -62 -138 -141 -138zM199 38c62 0 85 44 85 89v467c0 43 -29 85 -86 85c-59 0 -87 -42 -87 -85v-468c0 -44 28 -88 88 -88z" />
    <glyph glyph-name="one.LT" unicode="&#xe541;" 
d="M168 0v656l-59 -20l-6 39l84 38h33v-713h-52z" />
    <glyph glyph-name="two.LT" unicode="&#xe542;" 
d="M72 0v35l89 166c68 129 102 232 102 341v14c-2 68 -19 122 -74 122c-50 0 -71 -43 -71 -88v-43h-49v33c0 86 45 144 124 144c82 0 123 -58 123 -170c0 -150 -49 -261 -113 -380l-68 -127v-1h190v-46h-253z" />
    <glyph glyph-name="three.LT" unicode="&#xe543;" 
d="M196 -9c-103 0 -132 71 -132 156v25h51v-28c0 -61 28 -106 80 -106c56 0 82 42 82 160s-55 148 -95 148h-44v48h44c56 0 85 54 85 150c0 102 -34 135 -77 135c-48 0 -72 -35 -72 -98v-32h-49v30c0 101 49 145 126 145c95 0 125 -90 125 -176c0 -78 -21 -153 -79 -173v-2
c63 -20 90 -108 90 -181c0 -134 -56 -201 -135 -201z" />
    <glyph glyph-name="four.LT" unicode="&#xe544;" 
d="M237 0v195h-188v45l173 473h53l-177 -471h139v166l49 42v-208h60v-47h-60v-195h-49z" />
    <glyph glyph-name="five.LT" unicode="&#xe545;" 
d="M194 -9c-92 0 -129 65 -129 140v41h50v-33c0 -56 30 -100 80 -100c47 0 84 39 84 122v134c0 76 -29 111 -79 111c-35 0 -62 -24 -79 -50l-45 2l14 355h222v-46h-179c0 -3 -2 -132 -9 -254c24 25 53 39 92 39c62 0 114 -42 114 -137v-155c0 -101 -51 -169 -136 -169z" />
    <glyph glyph-name="six.LT" unicode="&#xe546;" 
d="M194 -9c-83 0 -130 59 -130 142v454c0 92 59 137 136 137c80 0 125 -51 125 -117v-58h-49v49c0 42 -24 81 -78 81c-60 0 -81 -48 -81 -91v-202c23 35 64 52 100 52c65 0 113 -40 113 -113v-199c0 -87 -56 -135 -136 -135zM198 37c60 0 80 47 80 86v195
c0 50 -29 75 -73 75c-55 0 -88 -48 -88 -93v-175c0 -40 25 -88 81 -88z" />
    <glyph glyph-name="seven.LT" unicode="&#xe547;" 
d="M131 0c2 287 68 532 140 666h-202v47h257v-40c-102 -174 -142 -447 -144 -673h-51z" />
    <glyph glyph-name="eight.LT" unicode="&#xe548;" 
d="M195 -8c-81 0 -133 50 -133 131v139c0 51 28 90 68 108c-40 18 -61 60 -61 105v123c0 84 61 126 131 126c69 0 128 -38 128 -120v-126c0 -48 -22 -88 -63 -107c38 -15 68 -52 68 -105v-142c0 -88 -58 -132 -138 -132zM198 37c56 0 82 38 82 83v147c0 48 -37 83 -82 83
c-48 0 -83 -36 -83 -82v-149c0 -43 31 -82 83 -82zM199 390c49 0 79 42 79 84v131c0 44 -35 75 -80 75c-46 0 -79 -34 -79 -76v-130c0 -46 36 -84 80 -84z" />
    <glyph glyph-name="nine.LT" unicode="&#xe549;" 
d="M195 -9c-79 0 -126 50 -126 124v57h49v-48c0 -51 27 -86 78 -86c53 0 81 43 81 94v204c-23 -38 -63 -55 -99 -55c-66 0 -113 41 -113 113v194c0 87 56 136 135 136c83 0 130 -58 130 -140v-442c0 -98 -58 -151 -135 -151zM189 324c45 0 88 44 88 90v179
c0 39 -25 88 -81 88c-60 0 -80 -52 -80 -90v-189c0 -50 30 -78 73 -78z" />
    <glyph glyph-name="currency" unicode="&#xa4;" horiz-adv-x="305" 
d="M59 223l-27 27l30 30c-16 21 -23 45 -23 68s8 46 22 65c-8 7 -23 22 -30 29l27 27l29 -29c19 14 42 21 64 21c23 0 46 -6 66 -20l30 30l27 -27l-30 -29c14 -21 23 -45 23 -68s-8 -46 -23 -67l30 -29l-26 -26l-30 29c-20 -13 -42 -20 -65 -20c-22 0 -45 7 -65 19zM152 267
c47 0 76 31 76 81c0 49 -36 80 -75 80c-46 0 -77 -29 -77 -83c0 -41 31 -78 76 -78z" />
    <glyph glyph-name="uni2070" unicode="&#x2070;" horiz-adv-x="242" 
d="M121 370c-53 0 -88 30 -88 84v243c0 56 41 84 89 84s87 -27 87 -81v-245c0 -57 -39 -85 -88 -85zM122 407c32 0 43 22 43 47v246c0 23 -14 44 -44 44c-31 0 -45 -21 -45 -45v-245c0 -24 14 -47 46 -47z" />
    <glyph glyph-name="uni2074" unicode="&#x2074;" horiz-adv-x="230" 
d="M135 380v105h-114v34l103 261h45l-107 -259h73v81l41 34v-115h35v-36h-35v-105h-41z" />
    <glyph glyph-name="uni2075" unicode="&#x2075;" horiz-adv-x="241" 
d="M118 370c-57 0 -84 37 -84 83v31h41v-27c0 -29 18 -51 44 -51c27 0 44 19 44 61v72c0 38 -16 55 -42 55c-18 0 -34 -14 -43 -28l-39 4l9 206h146v-38h-110c0 -5 -6 -130 -6 -136c14 17 35 26 57 26c38 0 72 -23 72 -80v-82c0 -60 -37 -96 -89 -96z" />
    <glyph glyph-name="uni2076" unicode="&#x2076;" horiz-adv-x="240" 
d="M119 370c-53 0 -85 35 -85 86v237c0 56 38 88 88 88c51 0 82 -32 82 -76v-34h-41v30c0 25 -16 44 -44 44c-29 0 -41 -24 -41 -48v-107c14 22 38 31 59 31c42 0 70 -27 70 -69v-98c0 -52 -37 -84 -88 -84zM121 406c31 0 43 25 43 47v95c0 28 -18 41 -40 41
c-23 0 -46 -22 -46 -47v-90c0 -22 14 -46 43 -46z" />
    <glyph glyph-name="uni2077" unicode="&#x2077;" horiz-adv-x="219" 
d="M63 380c1 151 44 282 87 358h-124v38h169v-33c-59 -94 -88 -237 -88 -363h-44z" />
    <glyph glyph-name="uni2078" unicode="&#x2078;" horiz-adv-x="242" 
d="M120 371c-52 0 -87 28 -87 80v67c0 29 17 51 41 64c-24 11 -37 35 -37 60v61c0 51 38 78 84 78s84 -24 84 -76v-61c0 -26 -14 -50 -39 -61c24 -11 43 -33 43 -63v-69c0 -53 -39 -80 -89 -80zM121 406c29 0 44 19 44 44v72c0 27 -21 43 -44 43c-26 0 -45 -17 -45 -42v-74
c0 -24 17 -43 45 -43zM121 599c26 0 42 19 42 42v65c0 25 -19 40 -43 40s-42 -17 -42 -40v-65c0 -25 20 -42 43 -42z" />
    <glyph glyph-name="uni2079" unicode="&#x2079;" horiz-adv-x="240" 
d="M118 370c-51 0 -81 32 -81 78v33h40v-29c0 -28 17 -45 44 -45s42 21 42 49v105c-15 -20 -40 -30 -61 -30c-41 0 -68 27 -68 69v98c0 52 36 83 87 83c53 0 85 -34 85 -85v-234c0 -60 -38 -92 -88 -92zM116 563c23 0 46 22 47 47v90c0 22 -14 46 -45 46
c-30 0 -42 -25 -42 -47v-95c0 -27 18 -41 40 -41z" />
    <glyph glyph-name="uni207D" unicode="&#x207d;" horiz-adv-x="138" 
d="M99 308c-39 68 -58 173 -58 253c0 83 19 179 58 249l26 -2c-28 -87 -45 -141 -45 -248c0 -88 17 -170 45 -249z" />
    <glyph glyph-name="uni207E" unicode="&#x207e;" horiz-adv-x="138" 
d="M42 308l-27 3c28 79 45 161 45 249c0 107 -17 161 -45 248l27 2c38 -70 57 -166 57 -249c0 -80 -19 -185 -57 -253z" />
    <glyph glyph-name="period.sup" horiz-adv-x="119" 
d="M38 380v73h43v-73h-43z" />
    <glyph glyph-name="comma.sup" horiz-adv-x="119" 
d="M40 312l14 69h-16v72h43v-70l-17 -71h-24z" />
    <glyph glyph-name="uni2080" unicode="&#x2080;" horiz-adv-x="242" 
d="M121 -143c-53 0 -88 30 -88 84v243c0 56 41 84 89 84s87 -27 87 -81v-245c0 -57 -39 -85 -88 -85zM122 -106c32 0 43 22 43 47v246c0 23 -14 44 -44 44c-31 0 -45 -21 -45 -45v-245c0 -24 14 -47 46 -47z" />
    <glyph glyph-name="uni2081" unicode="&#x2081;" horiz-adv-x="194" 
d="M81 -133v353l-36 -12l-7 33l60 26h26v-400h-43z" />
    <glyph glyph-name="uni2082" unicode="&#x2082;" horiz-adv-x="231" 
d="M38 -133v28l60 102c34 62 56 112 56 165v8c0 34 -11 60 -40 60c-28 0 -39 -25 -39 -51v-23h-40v24c0 52 29 88 81 88c53 0 82 -36 82 -100c0 -77 -31 -132 -68 -194l-40 -70h112v-37h-164z" />
    <glyph glyph-name="uni2083" unicode="&#x2083;" horiz-adv-x="241" 
d="M119 -143c-63 0 -85 46 -85 96v17h41v-18c0 -32 17 -58 44 -58c29 0 43 28 43 80c0 57 -29 76 -50 76h-27v37h26c31 0 47 24 47 75c0 52 -19 68 -41 68c-27 0 -41 -23 -41 -56v-17h-40v21c0 57 31 89 84 89c56 0 81 -45 81 -100c0 -43 -13 -84 -48 -96v-2
c38 -12 54 -56 54 -98c0 -78 -37 -114 -88 -114z" />
    <glyph glyph-name="uni2084" unicode="&#x2084;" horiz-adv-x="230" 
d="M135 -133v105h-114v34l103 261h45l-107 -259h73v81l41 34v-115h35v-36h-35v-105h-41z" />
    <glyph glyph-name="uni2085" unicode="&#x2085;" horiz-adv-x="241" 
d="M118 -143c-57 0 -84 37 -84 83v31h41v-27c0 -29 18 -51 44 -51c27 0 44 19 44 61v72c0 38 -16 55 -42 55c-18 0 -34 -14 -43 -28l-39 4l9 206h146v-38h-110c0 -5 -6 -130 -6 -136c14 17 35 26 57 26c38 0 72 -23 72 -80v-82c0 -60 -37 -96 -89 -96z" />
    <glyph glyph-name="uni2086" unicode="&#x2086;" horiz-adv-x="240" 
d="M119 -143c-53 0 -85 35 -85 86v237c0 56 38 88 88 88c51 0 82 -32 82 -76v-34h-41v30c0 25 -16 44 -44 44c-29 0 -41 -24 -41 -48v-107c14 22 38 31 59 31c42 0 70 -27 70 -69v-98c0 -52 -37 -84 -88 -84zM121 -107c31 0 43 25 43 47v95c0 28 -18 41 -40 41
c-23 0 -46 -22 -46 -47v-90c0 -22 14 -46 43 -46z" />
    <glyph glyph-name="uni2087" unicode="&#x2087;" horiz-adv-x="219" 
d="M63 -133c1 151 44 282 87 358h-124v38h169v-33c-59 -94 -88 -237 -88 -363h-44z" />
    <glyph glyph-name="uni2088" unicode="&#x2088;" horiz-adv-x="242" 
d="M120 -142c-52 0 -87 28 -87 80v67c0 29 17 51 41 64c-24 11 -37 35 -37 60v61c0 51 38 78 84 78s84 -24 84 -76v-61c0 -26 -14 -50 -39 -61c24 -11 43 -33 43 -63v-69c0 -53 -39 -80 -89 -80zM121 -107c29 0 44 19 44 44v72c0 27 -21 43 -44 43c-26 0 -45 -17 -45 -42
v-74c0 -24 17 -43 45 -43zM121 86c26 0 42 19 42 42v65c0 25 -19 40 -43 40s-42 -17 -42 -40v-65c0 -25 20 -42 43 -42z" />
    <glyph glyph-name="uni2089" unicode="&#x2089;" horiz-adv-x="240" 
d="M118 -143c-51 0 -81 32 -81 78v33h40v-29c0 -28 17 -45 44 -45s42 21 42 49v105c-15 -20 -40 -30 -61 -30c-41 0 -68 27 -68 69v98c0 52 36 83 87 83c53 0 85 -34 85 -85v-234c0 -60 -38 -92 -88 -92zM116 50c23 0 46 22 47 47v90c0 22 -14 46 -45 46
c-30 0 -42 -25 -42 -47v-95c0 -27 18 -41 40 -41z" />
    <glyph glyph-name="uni208D" unicode="&#x208d;" horiz-adv-x="138" 
d="M99 -205c-39 68 -58 173 -58 253c0 83 19 179 58 249l26 -2c-28 -87 -45 -141 -45 -248c0 -88 17 -170 45 -249z" />
    <glyph glyph-name="uni208E" unicode="&#x208e;" horiz-adv-x="138" 
d="M42 -205l-27 3c28 79 45 161 45 249c0 107 -17 161 -45 248l27 2c38 -70 57 -166 57 -249c0 -80 -19 -185 -57 -253z" />
    <glyph glyph-name="period.sub" horiz-adv-x="119" 
d="M38 -133v73h43v-73h-43z" />
    <glyph glyph-name="comma.sub" horiz-adv-x="119" 
d="M40 -201l14 69h-16v72h43v-70l-17 -71h-24z" />
    <glyph glyph-name="fraction" unicode="&#x2044;" horiz-adv-x="89" 
d="M-113 -2l275 718h37l-274 -718h-38z" />
    <glyph glyph-name="onehalf" unicode="&#xbd;" horiz-adv-x="541" 
d="M100 316v353l-36 -12l-7 33l60 26h26v-400h-43zM332 0v28l60 102c34 62 56 112 56 165v8c0 34 -11 60 -40 60c-28 0 -39 -25 -39 -51v-23h-40v24c0 52 29 88 81 88c53 0 82 -36 82 -100c0 -77 -31 -132 -68 -194l-40 -70h112v-37h-164zM97 -2l275 718h37l-274 -718h-38z
" />
    <glyph glyph-name="onequarter" unicode="&#xbc;" horiz-adv-x="541" 
d="M101 316v353l-36 -12l-7 33l60 26h26v-400h-43zM423 0v105h-114v34l103 261h45l-107 -259h73v81l41 34v-115h35v-36h-35v-105h-41zM105 -2l275 718h37l-274 -718h-38z" />
    <glyph glyph-name="threequarters" unicode="&#xbe;" horiz-adv-x="541" 
d="M426 0v105h-114v34l103 261h45l-107 -259h73v81l41 34v-115h35v-36h-35v-105h-41zM121 306c-63 0 -85 46 -85 96v17h41v-18c0 -32 17 -58 44 -58c29 0 43 28 43 80c0 57 -29 76 -50 76h-27v37h26c31 0 47 24 47 75c0 52 -19 68 -41 68c-27 0 -41 -23 -41 -56v-17h-40v21
c0 57 31 89 84 89c56 0 81 -45 81 -100c0 -43 -13 -84 -48 -96v-2c38 -12 54 -56 54 -98c0 -78 -37 -114 -88 -114zM123 -2l275 718h37l-274 -718h-38z" />
    <glyph glyph-name="percent" unicode="%" horiz-adv-x="531" 
d="M132 374c-57 0 -92 36 -92 98v151c0 64 38 99 92 99c55 0 94 -34 94 -99v-153c0 -62 -40 -96 -94 -96zM132 411c38 0 53 31 53 57v160c0 26 -16 57 -53 57c-39 0 -52 -30 -52 -57v-160c0 -31 14 -57 52 -57zM111 -3l273 719h39l-270 -719h-42zM396 -10
c-55 0 -92 34 -92 96v147c0 63 38 106 93 106c54 0 94 -36 94 -100v-153c0 -61 -41 -96 -95 -96zM396 27c39 0 53 31 53 57v161c0 25 -15 56 -53 56c-37 0 -51 -30 -51 -56v-161c0 -30 14 -57 51 -57z" />
    <glyph glyph-name="perthousand" unicode="&#x2030;" horiz-adv-x="762" 
d="M628 -10c-54 0 -92 34 -92 96v147c0 63 38 106 93 106c54 0 93 -36 93 -100v-153c0 -61 -40 -96 -94 -96zM628 27c38 0 53 31 53 57v161c0 25 -16 56 -53 56s-52 -30 -52 -56v-161c0 -30 14 -57 52 -57zM132 374c-57 0 -92 36 -92 98v151c0 64 38 99 92 99
c55 0 94 -34 94 -99v-153c0 -62 -40 -96 -94 -96zM132 411c38 0 53 31 53 57v160c0 26 -16 57 -53 57c-39 0 -52 -30 -52 -57v-160c0 -31 14 -57 52 -57zM111 -3l273 719h39l-270 -719h-42zM396 -10c-55 0 -92 34 -92 96v147c0 63 38 106 93 106c54 0 94 -36 94 -100v-153
c0 -61 -41 -96 -95 -96zM396 27c39 0 53 31 53 57v161c0 25 -15 56 -53 56c-37 0 -51 -30 -51 -56v-161c0 -30 14 -57 51 -57z" />
    <glyph glyph-name="uni2153" unicode="&#x2153;" horiz-adv-x="541" 
d="M100 316v353l-36 -12l-7 33l60 26h26v-400h-43zM97 -2l275 718h37l-274 -718h-38zM407 -10c-63 0 -85 46 -85 96v17h41v-18c0 -32 17 -58 44 -58c29 0 43 28 43 80c0 57 -29 76 -50 76h-27v37h26c31 0 47 24 47 75c0 52 -19 68 -41 68c-27 0 -41 -23 -41 -56v-17h-40v21
c0 57 31 89 84 89c56 0 81 -45 81 -100c0 -43 -13 -84 -48 -96v-2c38 -12 54 -56 54 -98c0 -78 -37 -114 -88 -114z" />
    <glyph glyph-name="uni2154" unicode="&#x2154;" horiz-adv-x="541" 
d="M26 316v28l60 102c34 62 56 112 56 165v8c0 34 -11 60 -40 60c-28 0 -39 -25 -39 -51v-23h-40v24c0 52 29 88 81 88c53 0 82 -36 82 -100c0 -77 -31 -132 -68 -194l-40 -70h112v-37h-164zM114 -2l275 718h37l-274 -718h-38zM410 -10c-63 0 -85 46 -85 96v17h41v-18
c0 -32 17 -58 44 -58c29 0 43 28 43 80c0 57 -29 76 -50 76h-27v37h26c31 0 47 24 47 75c0 52 -19 68 -41 68c-27 0 -41 -23 -41 -56v-17h-40v21c0 57 31 89 84 89c56 0 81 -45 81 -100c0 -43 -13 -84 -48 -96v-2c38 -12 54 -56 54 -98c0 -78 -37 -114 -88 -114z" />
    <glyph glyph-name="uni2155" unicode="&#x2155;" horiz-adv-x="541" 
d="M114 316v353l-36 -12l-7 33l60 26h26v-400h-43zM411 -10c-57 0 -84 37 -84 83v31h41v-27c0 -29 18 -51 44 -51c27 0 44 19 44 61v72c0 38 -16 55 -42 55c-18 0 -34 -14 -43 -28l-39 4l9 206h146v-38h-110c0 -5 -6 -130 -6 -136c14 17 35 26 57 26c38 0 72 -23 72 -80v-82
c0 -60 -37 -96 -89 -96zM106 -2l275 718h37l-274 -718h-38z" />
    <glyph glyph-name="uni2156" unicode="&#x2156;" horiz-adv-x="541" 
d="M26 316v28l60 102c34 62 56 112 56 165v8c0 34 -11 60 -40 60c-28 0 -39 -25 -39 -51v-23h-40v24c0 52 29 88 81 88c53 0 82 -36 82 -100c0 -77 -31 -132 -68 -194l-40 -70h112v-37h-164zM412 -10c-57 0 -84 37 -84 83v31h41v-27c0 -29 18 -51 44 -51c27 0 44 19 44 61
v72c0 38 -16 55 -42 55c-18 0 -34 -14 -43 -28l-39 4l9 206h146v-38h-110c0 -5 -6 -130 -6 -136c14 17 35 26 57 26c38 0 72 -23 72 -80v-82c0 -60 -37 -96 -89 -96zM111 -2l275 718h37l-274 -718h-38z" />
    <glyph glyph-name="uni2157" unicode="&#x2157;" horiz-adv-x="541" 
d="M114 306c-63 0 -85 46 -85 96v17h41v-18c0 -32 17 -58 44 -58c29 0 43 28 43 80c0 57 -29 76 -50 76h-27v37h26c31 0 47 24 47 75c0 52 -19 68 -41 68c-27 0 -41 -23 -41 -56v-17h-40v21c0 57 31 89 84 89c56 0 81 -45 81 -100c0 -43 -13 -84 -48 -96v-2
c38 -12 54 -56 54 -98c0 -78 -37 -114 -88 -114zM109 -2l275 718h37l-274 -718h-38zM412 -10c-57 0 -84 37 -84 83v31h41v-27c0 -29 18 -51 44 -51c27 0 44 19 44 61v72c0 38 -16 55 -42 55c-18 0 -34 -14 -43 -28l-39 4l9 206h146v-38h-110c0 -5 -6 -130 -6 -136
c14 17 35 26 57 26c38 0 72 -23 72 -80v-82c0 -60 -37 -96 -89 -96z" />
    <glyph glyph-name="uni2158" unicode="&#x2158;" horiz-adv-x="541" 
d="M130 316v105h-114v34l103 261h45l-107 -259h73v81l41 34v-115h35v-36h-35v-105h-41zM412 -10c-57 0 -84 37 -84 83v31h41v-27c0 -29 18 -51 44 -51c27 0 44 19 44 61v72c0 38 -16 55 -42 55c-18 0 -34 -14 -43 -28l-39 4l9 206h146v-38h-110c0 -5 -6 -130 -6 -136
c14 17 35 26 57 26c38 0 72 -23 72 -80v-82c0 -60 -37 -96 -89 -96zM109 -2l275 718h37l-274 -718h-38z" />
    <glyph glyph-name="uni2159" unicode="&#x2159;" horiz-adv-x="541" 
d="M117 316v353l-36 -12l-7 33l60 26h26v-400h-43zM410 -10c-53 0 -85 35 -85 86v237c0 56 38 88 88 88c51 0 82 -32 82 -76v-34h-41v30c0 25 -16 44 -44 44c-29 0 -41 -24 -41 -48v-107c14 22 38 31 59 31c42 0 70 -27 70 -69v-98c0 -52 -37 -84 -88 -84zM412 26
c31 0 43 25 43 47v95c0 28 -18 41 -40 41c-23 0 -46 -22 -46 -47v-90c0 -22 14 -46 43 -46zM106 -2l275 718h37l-274 -718h-38z" />
    <glyph glyph-name="uni215A" unicode="&#x215a;" horiz-adv-x="541" 
d="M417 -10c-53 0 -85 35 -85 86v237c0 56 38 88 88 88c51 0 82 -32 82 -76v-34h-41v30c0 25 -16 44 -44 44c-29 0 -41 -24 -41 -48v-107c14 22 38 31 59 31c42 0 70 -27 70 -69v-98c0 -52 -37 -84 -88 -84zM419 26c31 0 43 25 43 47v95c0 28 -18 41 -40 41
c-23 0 -46 -22 -46 -47v-90c0 -22 14 -46 43 -46zM129 306c-57 0 -84 37 -84 83v31h41v-27c0 -29 18 -51 44 -51c27 0 44 19 44 61v72c0 38 -16 55 -42 55c-18 0 -34 -14 -43 -28l-39 4l9 206h146v-38h-110c0 -5 -6 -130 -6 -136c14 17 35 26 57 26c38 0 72 -23 72 -80v-82
c0 -60 -37 -96 -89 -96zM119 -2l275 718h37l-274 -718h-38z" />
    <glyph glyph-name="uni215B" unicode="&#x215b;" horiz-adv-x="541" 
d="M117 316v353l-36 -12l-7 33l60 26h26v-400h-43zM411 -9c-52 0 -87 28 -87 80v67c0 29 17 51 41 64c-24 11 -37 35 -37 60v61c0 51 38 78 84 78s84 -24 84 -76v-61c0 -26 -14 -50 -39 -61c24 -11 43 -33 43 -63v-69c0 -53 -39 -80 -89 -80zM412 26c29 0 44 19 44 44v72
c0 27 -21 43 -44 43c-26 0 -45 -17 -45 -42v-74c0 -24 17 -43 45 -43zM412 219c26 0 42 19 42 42v65c0 25 -19 40 -43 40s-42 -17 -42 -40v-65c0 -25 20 -42 43 -42zM107 -2l275 718h37l-274 -718h-38z" />
    <glyph glyph-name="uni215C" unicode="&#x215c;" horiz-adv-x="541" 
d="M418 -9c-52 0 -87 28 -87 80v67c0 29 17 51 41 64c-24 11 -37 35 -37 60v61c0 51 38 78 84 78s84 -24 84 -76v-61c0 -26 -14 -50 -39 -61c24 -11 43 -33 43 -63v-69c0 -53 -39 -80 -89 -80zM419 26c29 0 44 19 44 44v72c0 27 -21 43 -44 43c-26 0 -45 -17 -45 -42v-74
c0 -24 17 -43 45 -43zM419 219c26 0 42 19 42 42v65c0 25 -19 40 -43 40s-42 -17 -42 -40v-65c0 -25 20 -42 43 -42zM130 306c-63 0 -85 46 -85 96v17h41v-18c0 -32 17 -58 44 -58c29 0 43 28 43 80c0 57 -29 76 -50 76h-27v37h26c31 0 47 24 47 75c0 52 -19 68 -41 68
c-27 0 -41 -23 -41 -56v-17h-40v21c0 57 31 89 84 89c56 0 81 -45 81 -100c0 -43 -13 -84 -48 -96v-2c38 -12 54 -56 54 -98c0 -78 -37 -114 -88 -114zM120 -2l275 718h37l-274 -718h-38z" />
    <glyph glyph-name="uni215D" unicode="&#x215d;" horiz-adv-x="541" 
d="M417 -9c-52 0 -87 28 -87 80v67c0 29 17 51 41 64c-24 11 -37 35 -37 60v61c0 51 38 78 84 78s84 -24 84 -76v-61c0 -26 -14 -50 -39 -61c24 -11 43 -33 43 -63v-69c0 -53 -39 -80 -89 -80zM418 26c29 0 44 19 44 44v72c0 27 -21 43 -44 43c-26 0 -45 -17 -45 -42v-74
c0 -24 17 -43 45 -43zM418 219c26 0 42 19 42 42v65c0 25 -19 40 -43 40s-42 -17 -42 -40v-65c0 -25 20 -42 43 -42zM129 306c-57 0 -84 37 -84 83v31h41v-27c0 -29 18 -51 44 -51c27 0 44 19 44 61v72c0 38 -16 55 -42 55c-18 0 -34 -14 -43 -28l-39 4l9 206h146v-38h-110
c0 -5 -6 -130 -6 -136c14 17 35 26 57 26c38 0 72 -23 72 -80v-82c0 -60 -37 -96 -89 -96zM119 -2l275 718h37l-274 -718h-38z" />
    <glyph glyph-name="uni215E" unicode="&#x215e;" horiz-adv-x="541" 
d="M417 -9c-52 0 -87 28 -87 80v67c0 29 17 51 41 64c-24 11 -37 35 -37 60v61c0 51 38 78 84 78s84 -24 84 -76v-61c0 -26 -14 -50 -39 -61c24 -11 43 -33 43 -63v-69c0 -53 -39 -80 -89 -80zM418 26c29 0 44 19 44 44v72c0 27 -21 43 -44 43c-26 0 -45 -17 -45 -42v-74
c0 -24 17 -43 45 -43zM418 219c26 0 42 19 42 42v65c0 25 -19 40 -43 40s-42 -17 -42 -40v-65c0 -25 20 -42 43 -42zM103 316c1 151 44 282 87 358h-124v38h169v-33c-59 -94 -88 -237 -88 -363h-44zM112 -2l275 718h37l-274 -718h-38z" />
    <glyph glyph-name="plus" unicode="+" 
d="M178 164v134h-125v43h125v134h40l-1 -134h124v-43h-123v-134h-40z" />
    <glyph glyph-name="minus" unicode="&#x2212;" 
d="M54 298v43h286v-43h-286z" />
    <glyph glyph-name="plusminus" unicode="&#xb1;" 
d="M178 206v129h-125v43h125v131h40l-1 -131h124v-43h-123v-129h-40zM54 105v42h287v-42h-287z" />
    <glyph glyph-name="multiply" unicode="&#xd7;" 
d="M87 180l-27 30l109 111c-19 19 -91 92 -110 110l29 29l110 -110l110 110l28 -29l-110 -109c20 -21 90 -91 110 -111l-28 -29l-110 110c-21 -19 -90 -91 -111 -112z" />
    <glyph glyph-name="divide" unicode="&#xf7;" 
d="M174 143v89h49v-89h-49zM55 298v43h285v-43h-285zM174 399v88h49v-88h-49z" />
    <glyph glyph-name="equal" unicode="=" 
d="M53 230v45h288v-45h-288zM53 355v45h288v-45h-288z" />
    <glyph glyph-name="notequal" unicode="&#x2260;" 
d="M171 142l-38 7l25 81h-104v43h117l28 83h-145v42h159c4 10 20 67 24 78l39 -9l-22 -69h87v-42h-100c-6 -14 -23 -69 -29 -83h129v-43h-142z" />
    <glyph glyph-name="less" unicode="&#x3c;" 
d="M310 176l-248 126l1 35l249 124l20 -39l-209 -102l208 -106z" />
    <glyph glyph-name="greater" unicode="&#x3e;" 
d="M84 176l-20 39l207 105l-209 103l21 38l249 -123v-36z" />
    <glyph glyph-name="lessequal" unicode="&#x2264;" 
d="M310 212l-247 125v34l250 122l19 -37l-213 -102l211 -105zM54 104v43h286v-43h-286z" />
    <glyph glyph-name="greaterequal" unicode="&#x2265;" 
d="M84 212l-20 37l212 105c-38 18 -176 85 -214 102l20 37l250 -122v-34zM54 104v43h287v-43h-287z" />
    <glyph glyph-name="logicalnot" unicode="&#xac;" horiz-adv-x="392" 
d="M312 184v106h-280v40h323v-146h-43z" />
    <glyph glyph-name="infinity" unicode="&#x221e;" horiz-adv-x="627" 
d="M462 192c-64 0 -111 44 -150 93c-42 -47 -96 -92 -153 -92c-80 0 -131 58 -131 127c0 75 59 130 134 130c61 0 110 -40 154 -93c39 40 95 87 155 87c78 0 128 -46 128 -118c0 -78 -57 -134 -137 -134zM156 232c50 0 93 42 135 88c-29 43 -76 92 -130 92
c-50 0 -89 -36 -89 -84c0 -50 29 -96 84 -96zM464 231c53 0 92 40 92 90s-28 87 -87 87c-42 0 -89 -43 -132 -88c34 -46 74 -89 127 -89z" />
    <glyph glyph-name="asciicircum" unicode="^" horiz-adv-x="327" 
d="M78 220l66 282h44l59 -282h-42l-40 207s-44 -205 -44 -207h-43z" />
    <glyph glyph-name="asciitilde" unicode="~" 
d="M86 272l-32 5c5 42 23 76 63 76c37 0 127 -27 160 -27c19 0 26 13 31 35l33 -6c-5 -42 -25 -76 -62 -76s-131 28 -162 28c-19 0 -26 -13 -31 -35z" />
    <glyph glyph-name="approxequal" unicode="&#x2248;" 
d="M86 220l-32 5c5 41 23 76 63 76c37 0 127 -27 160 -27c19 0 26 13 31 35l33 -6c-5 -42 -25 -76 -62 -76s-131 28 -162 28c-19 0 -26 -13 -31 -35zM86 343l-32 5c5 41 23 76 63 76c37 0 127 -27 160 -27c19 0 26 14 31 35l33 -6c-5 -42 -25 -76 -62 -76s-131 28 -162 28
c-19 0 -26 -13 -31 -35z" />
    <glyph glyph-name="degree" unicode="&#xb0;" horiz-adv-x="227" 
d="M113 558c-46 0 -79 37 -79 81c0 45 34 83 79 83c46 0 80 -38 80 -83c0 -44 -35 -81 -80 -81zM113 587c28 0 49 24 49 52c0 30 -21 53 -49 53s-49 -23 -49 -53c0 -28 21 -52 49 -52z" />
    <glyph glyph-name="partialdiff" unicode="&#x2202;" horiz-adv-x="346" 
d="M176 -9c-80 0 -126 46 -126 134v268c0 84 53 131 125 132c3 0 19 -1 31 -7l-108 185l49 17l138 -241c12 -20 20 -50 20 -82v-269c0 -93 -50 -137 -129 -137zM178 35c63 0 76 43 76 88v274c0 46 -18 85 -73 85c-56 0 -80 -40 -80 -86v-277c0 -43 21 -84 77 -84z" />
    <glyph glyph-name="integral" unicode="&#x222b;" horiz-adv-x="268" 
d="M37 -169c-13 0 -27 2 -39 4l3 44c5 -1 20 -2 25 -2c34 0 41 22 43 55l43 694c3 56 37 97 95 97c13 0 28 -1 42 -5l-3 -43c-10 2 -23 3 -36 3c-25 0 -46 -16 -48 -51l-42 -702c-3 -52 -25 -94 -83 -94z" />
    <glyph glyph-name="radical" unicode="&#x221a;" horiz-adv-x="393" 
d="M129 -2l-108 519h55l81 -419h1l171 616h52l-201 -716h-51z" />
    <glyph glyph-name="product" unicode="&#x220f;" horiz-adv-x="448" 
d="M89 -133v796h-62v50h394v-50h-58v-796h-54v796h-166v-796h-54z" />
    <glyph glyph-name="summation" unicode="&#x2211;" horiz-adv-x="338" 
d="M35 -133v40l193 398l-194 370v39h270v-51h-203l180 -341v-34l-182 -371h206v-50h-270z" />
    <glyph glyph-name="lozenge" unicode="&#x25ca;" horiz-adv-x="381" 
d="M169 -2l-134 341v15l134 360h41l136 -360v-14l-136 -342h-41zM192 60l108 285l-112 304l-105 -302z" />
    <glyph glyph-name="Delta" unicode="&#x2206;" horiz-adv-x="414" 
d="M30 0v29l149 686h73l148 -686v-29h-370zM87 47h251l-124 602h-3z" />
    <glyph glyph-name="Omega" unicode="&#x2126;" horiz-adv-x="433" 
d="M43 0v52l95 -3v5c-61 84 -91 191 -91 309v157c0 128 61 204 170 204c117 0 168 -89 168 -202v-158c0 -129 -49 -257 -89 -310v-5l94 3v-52h-148v33c43 76 85 180 85 333v165c0 81 -35 143 -112 143c-69 0 -111 -54 -111 -144v-162c0 -182 46 -265 88 -335v-33h-149z" />
    <glyph glyph-name="mu" unicode="&#xb5;" horiz-adv-x="370" 
d="M54 -178v695h53v-412c0 -48 29 -69 68 -69c42 0 85 35 85 104v377h53v-405c0 -28 5 -51 31 -61v-53c-35 9 -63 32 -69 69c-18 -47 -53 -77 -102 -77c-35 0 -64 16 -77 49h-2l14 -207z" />
    <glyph glyph-name="pi" unicode="&#x3c0;" horiz-adv-x="381" 
d="M326 -4c-47 0 -82 24 -82 83v392h-114c-4 -147 -10 -323 -20 -471h-53c12 148 18 322 21 471h-56l6 46h327v-46h-60v-370c0 -29 5 -57 31 -57v-48z" />
    <glyph glyph-name="arrowleft" unicode="&#x2190;" horiz-adv-x="418" 
d="M176 226l-128 132v5l128 132l28 -27l-88 -89h251v-38h-251l87 -89z" />
    <glyph glyph-name="arrowright" unicode="&#x2192;" horiz-adv-x="418" 
d="M239 226l-27 26l88 89h-251v38h251l-88 89l27 27l129 -132v-5z" />
    <glyph glyph-name="arrowup" unicode="&#x2191;" horiz-adv-x="418" 
d="M190 201v251l-89 -88l-27 27l132 129h5l132 -129l-26 -27l-89 88v-251h-38z" />
    <glyph glyph-name="arrowdown" unicode="&#x2193;" horiz-adv-x="418" 
d="M206 201l-132 128l27 27l89 -87v251h38v-251l88 88l27 -28l-132 -128h-5z" />
    <glyph glyph-name="uni2196" unicode="&#x2196;" horiz-adv-x="418" 
d="M308 234l-177 178l-1 -124h-38l1 184l4 3l184 2l1 -37l-124 -1l178 -178z" />
    <glyph glyph-name="uni2197" unicode="&#x2197;" horiz-adv-x="418" 
d="M119 234l-27 27l178 178l-124 1v37l184 -2l4 -3l2 -184h-39v124z" />
    <glyph glyph-name="uni2198" unicode="&#x2198;" horiz-adv-x="418" 
d="M146 234v38h124l-178 178l27 27l178 -178v125h39c0 -29 -2 -156 -2 -184l-4 -4z" />
    <glyph glyph-name="uni2199" unicode="&#x2199;" horiz-adv-x="418" 
d="M281 234l-184 2l-4 4l-1 184h38l1 -125l177 178l28 -27l-178 -178h124z" />
    <glyph glyph-name="blacksquare" unicode="&#x25a0;" horiz-adv-x="525" 
d="M42 0v714h440l1 -714h-441z" />
    <glyph glyph-name="whitesquare" unicode="&#x25a1;" horiz-adv-x="517" 
d="M43 0v713h431v-713h-431zM84 39h349v636h-349v-636z" />
    <glyph glyph-name="blacksmallsquare" unicode="&#x25aa;" horiz-adv-x="451" 
d="M45 0v541h361v-541h-361z" />
    <glyph glyph-name="apple" unicode="&#xf8ff;" horiz-adv-x="1022" 
d="M636 -84l-156 3l-18 -2l-7 7c22 6 29 7 41 11c47 16 53 48 56 61c4 37 10 128 14 221l-99 -3l2 12l98 6c5 93 9 184 10 221l39 23c-58 3 -120 5 -180 7c-1 -50 -5 -106 -7 -140c-11 -211 -140 -279 -195 -279c-42 0 -127 28 -152 42l23 38c13 -3 113 -49 160 -48
c65 1 129 103 126 201l5 187c-21 0 -41 1 -62 1c-77 0 -156 -65 -156 -148c11 -26 37 -50 78 -68c0 -7 -11 -32 -16 -37c-57 24 -71 67 -74 97c0 99 84 173 199 193h32l5 168l40 18c-77 3 -158 8 -246 8c-77 0 -156 -62 -156 -146c12 -25 39 -47 79 -64
c0 -6 -18 -32 -21 -37c-58 24 -72 67 -75 97c0 100 101 166 190 189c116 0 220 -9 348 -12c24 0 38 -1 63 -2c9 0 32 -1 40 -1c17 -1 22 1 34 3c8 6 18 19 22 28l8 -3c-5 -13 -18 -30 -24 -35c-40 -20 -68 -29 -115 -29c-46 0 -94 2 -142 4c-5 -25 -4 -115 -7 -136l-2 -51
c124 -4 267 -14 401 -14c-6 -1 115 -5 157 15l4 -6c-70 -31 -136 -43 -226 -43c-45 0 -96 1 -149 3c-5 -34 -12 -167 -14 -189c0 -13 -1 -31 -2 -53l149 10h4l4 -3l-35 -53l-7 4l23 36c-40 -3 -89 -7 -139 -10l-13 -194c-3 -23 -31 -65 -56 -76l1 -1c53 9 116 4 168 8v-1
c0 -14 -13 -34 -29 -36c-11 -2 -25 -2 -43 -2z" />
    <glyph glyph-name="uni25E4" unicode="&#x25e4;" horiz-adv-x="385" 
d="M142 198l-5 5l-100 306l5 4l311 -95l5 -5z" />
    <glyph glyph-name="uni25E5" unicode="&#x25e5;" horiz-adv-x="385" 
d="M253 198l-216 215l5 5l311 95l5 -4l-100 -306z" />
    <glyph glyph-name="uni25E2" unicode="&#x25e2;" horiz-adv-x="385" 
d="M353 198l-311 95l-5 5l216 215l5 -5l100 -306z" />
    <glyph glyph-name="uni25E3" unicode="&#x25e3;" horiz-adv-x="385" 
d="M42 198l-5 4l100 306l5 5l216 -215l-5 -5z" />
    <glyph glyph-name="CR" horiz-adv-x="98" 
 />
    <glyph glyph-name="zero.dnom" unicode="&#xe402;" horiz-adv-x="242" 
d="M121 -10c-53 0 -88 30 -88 84v243c0 56 41 84 89 84s87 -27 87 -81v-245c0 -57 -39 -85 -88 -85zM122 27c32 0 43 22 43 47v246c0 23 -14 44 -44 44c-31 0 -45 -21 -45 -45v-245c0 -24 14 -47 46 -47z" />
    <glyph glyph-name="one.dnom" unicode="&#xe403;" horiz-adv-x="194" 
d="M81 0v353l-36 -12l-7 33l60 26h26v-400h-43z" />
    <glyph glyph-name="two.dnom" unicode="&#xe404;" horiz-adv-x="231" 
d="M38 0v28l60 102c34 62 56 112 56 165v8c0 34 -11 60 -40 60c-28 0 -39 -25 -39 -51v-23h-40v24c0 52 29 88 81 88c53 0 82 -36 82 -100c0 -77 -31 -132 -68 -194l-40 -70h112v-37h-164z" />
    <glyph glyph-name="four.dnom" unicode="&#xe406;" horiz-adv-x="230" 
d="M135 0v105h-114v34l103 261h45l-107 -259h73v81l41 34v-115h35v-36h-35v-105h-41z" />
    <glyph glyph-name="three.dnom" unicode="&#xe405;" horiz-adv-x="241" 
d="M119 -10c-63 0 -85 46 -85 96v17h41v-18c0 -32 17 -58 44 -58c29 0 43 28 43 80c0 57 -29 76 -50 76h-27v37h26c31 0 47 24 47 75c0 52 -19 68 -41 68c-27 0 -41 -23 -41 -56v-17h-40v21c0 57 31 89 84 89c56 0 81 -45 81 -100c0 -43 -13 -84 -48 -96v-2
c38 -12 54 -56 54 -98c0 -78 -37 -114 -88 -114z" />
    <glyph glyph-name="five.dnom" unicode="&#xe407;" horiz-adv-x="241" 
d="M118 -10c-57 0 -84 37 -84 83v31h41v-27c0 -29 18 -51 44 -51c27 0 44 19 44 61v72c0 38 -16 55 -42 55c-18 0 -34 -14 -43 -28l-39 4l9 206h146v-38h-110c0 -5 -6 -130 -6 -136c14 17 35 26 57 26c38 0 72 -23 72 -80v-82c0 -60 -37 -96 -89 -96z" />
    <glyph glyph-name="six.dnom" unicode="&#xe408;" horiz-adv-x="240" 
d="M119 -10c-53 0 -85 35 -85 86v237c0 56 38 88 88 88c51 0 82 -32 82 -76v-34h-41v30c0 25 -16 44 -44 44c-29 0 -41 -24 -41 -48v-107c14 22 38 31 59 31c42 0 70 -27 70 -69v-98c0 -52 -37 -84 -88 -84zM121 26c31 0 43 25 43 47v95c0 28 -18 41 -40 41
c-23 0 -46 -22 -46 -47v-90c0 -22 14 -46 43 -46z" />
    <glyph glyph-name="seven.dnom" unicode="&#xe409;" horiz-adv-x="219" 
d="M63 0c1 151 44 282 87 358h-124v38h169v-33c-59 -94 -88 -237 -88 -363h-44z" />
    <glyph glyph-name="eight.dnom" unicode="&#xe40a;" horiz-adv-x="242" 
d="M120 -9c-52 0 -87 28 -87 80v67c0 29 17 51 41 64c-24 11 -37 35 -37 60v61c0 51 38 78 84 78s84 -24 84 -76v-61c0 -26 -14 -50 -39 -61c24 -11 43 -33 43 -63v-69c0 -53 -39 -80 -89 -80zM121 26c29 0 44 19 44 44v72c0 27 -21 43 -44 43c-26 0 -45 -17 -45 -42v-74
c0 -24 17 -43 45 -43zM121 219c26 0 42 19 42 42v65c0 25 -19 40 -43 40s-42 -17 -42 -40v-65c0 -25 20 -42 43 -42z" />
    <glyph glyph-name="nine.dnom" unicode="&#xe40b;" horiz-adv-x="240" 
d="M118 -10c-51 0 -81 32 -81 78v33h40v-29c0 -28 17 -45 44 -45s42 21 42 49v105c-15 -20 -40 -30 -61 -30c-41 0 -68 27 -68 69v98c0 52 36 83 87 83c53 0 85 -34 85 -85v-234c0 -60 -38 -92 -88 -92zM116 183c23 0 46 22 47 47v90c0 22 -14 46 -45 46
c-30 0 -42 -25 -42 -47v-95c0 -27 18 -41 40 -41z" />
    <glyph glyph-name="parenleft.dnom" unicode="&#xe40f;" horiz-adv-x="138" 
d="M99 -72c-39 68 -58 173 -58 253c0 83 19 179 58 249l26 -2c-28 -87 -45 -141 -45 -248c0 -88 17 -170 45 -249z" />
    <glyph glyph-name="parenright.dnom" unicode="&#xe410;" horiz-adv-x="138" 
d="M42 -72l-27 3c28 79 45 161 45 249c0 107 -17 161 -45 248l27 2c38 -70 57 -166 57 -249c0 -80 -19 -185 -57 -253z" />
    <glyph glyph-name="period.dnom" unicode="&#xe40e;" horiz-adv-x="119" 
d="M38 0v73h43v-73h-43z" />
    <glyph glyph-name="comma.dnom" unicode="&#xe40d;" horiz-adv-x="119" 
d="M40 -68l14 69h-16v72h43v-70l-17 -71h-24z" />
    <glyph glyph-name="onesuperior" unicode="&#xb9;" horiz-adv-x="194" 
d="M81 380v353l-36 -12l-7 33l60 26h26v-400h-43z" />
    <glyph glyph-name="twosuperior" unicode="&#xb2;" horiz-adv-x="231" 
d="M38 380v28l60 102c34 62 56 112 56 165v8c0 34 -11 60 -40 60c-28 0 -39 -25 -39 -51v-23h-40v24c0 52 29 88 81 88c53 0 82 -36 82 -100c0 -77 -31 -132 -68 -194l-40 -70h112v-37h-164z" />
    <glyph glyph-name="threesuperior" unicode="&#xb3;" horiz-adv-x="241" 
d="M119 370c-63 0 -85 46 -85 96v17h41v-18c0 -32 17 -58 44 -58c29 0 43 28 43 80c0 57 -29 76 -50 76h-27v37h26c31 0 47 24 47 75c0 52 -19 68 -41 68c-27 0 -41 -23 -41 -56v-17h-40v21c0 57 31 89 84 89c56 0 81 -45 81 -100c0 -43 -13 -84 -48 -96v-2
c38 -12 54 -56 54 -98c0 -78 -37 -114 -88 -114z" />
    <glyph glyph-name="zero.numr" unicode="&#xe416;" horiz-adv-x="242" 
d="M121 308c-53 0 -88 30 -88 84v243c0 56 41 84 89 84s87 -27 87 -81v-245c0 -57 -39 -85 -88 -85zM122 345c32 0 43 22 43 47v246c0 23 -14 44 -44 44c-31 0 -45 -21 -45 -45v-245c0 -24 14 -47 46 -47z" />
    <glyph glyph-name="one.numr" unicode="&#xe417;" horiz-adv-x="194" 
d="M81 318v353l-36 -12l-7 33l60 26h26v-400h-43z" />
    <glyph glyph-name="two.numr" unicode="&#xe418;" horiz-adv-x="231" 
d="M38 318v28l60 102c34 62 56 112 56 165v8c0 34 -11 60 -40 60c-28 0 -39 -25 -39 -51v-23h-40v24c0 52 29 88 81 88c53 0 82 -36 82 -100c0 -77 -31 -132 -68 -194l-40 -70h112v-37h-164z" />
    <glyph glyph-name="three.numr" unicode="&#xe419;" horiz-adv-x="241" 
d="M119 308c-63 0 -85 46 -85 96v17h41v-18c0 -32 17 -58 44 -58c29 0 43 28 43 80c0 57 -29 76 -50 76h-27v37h26c31 0 47 24 47 75c0 52 -19 68 -41 68c-27 0 -41 -23 -41 -56v-17h-40v21c0 57 31 89 84 89c56 0 81 -45 81 -100c0 -43 -13 -84 -48 -96v-2
c38 -12 54 -56 54 -98c0 -78 -37 -114 -88 -114z" />
    <glyph glyph-name="four.numr" unicode="&#xe41a;" horiz-adv-x="230" 
d="M135 318v105h-114v34l103 261h45l-107 -259h73v81l41 34v-115h35v-36h-35v-105h-41z" />
    <glyph glyph-name="five.numr" unicode="&#xe41b;" horiz-adv-x="241" 
d="M118 308c-57 0 -84 37 -84 83v31h41v-27c0 -29 18 -51 44 -51c27 0 44 19 44 61v72c0 38 -16 55 -42 55c-18 0 -34 -14 -43 -28l-39 4l9 206h146v-38h-110c0 -5 -6 -130 -6 -136c14 17 35 26 57 26c38 0 72 -23 72 -80v-82c0 -60 -37 -96 -89 -96z" />
    <glyph glyph-name="six.numr" unicode="&#xe41c;" horiz-adv-x="240" 
d="M119 308c-53 0 -85 35 -85 86v237c0 56 38 88 88 88c51 0 82 -32 82 -76v-34h-41v30c0 25 -16 44 -44 44c-29 0 -41 -24 -41 -48v-107c14 22 38 31 59 31c42 0 70 -27 70 -69v-98c0 -52 -37 -84 -88 -84zM121 344c31 0 43 25 43 47v95c0 28 -18 41 -40 41
c-23 0 -46 -22 -46 -47v-90c0 -22 14 -46 43 -46z" />
    <glyph glyph-name="seven.numr" unicode="&#xe41d;" horiz-adv-x="219" 
d="M63 318c1 151 44 282 87 358h-124v38h169v-33c-59 -94 -88 -237 -88 -363h-44z" />
    <glyph glyph-name="eight.numr" unicode="&#xe41e;" horiz-adv-x="242" 
d="M120 309c-52 0 -87 28 -87 80v67c0 29 17 51 41 64c-24 11 -37 35 -37 60v61c0 51 38 78 84 78s84 -24 84 -76v-61c0 -26 -14 -50 -39 -61c24 -11 43 -33 43 -63v-69c0 -53 -39 -80 -89 -80zM121 344c29 0 44 19 44 44v72c0 27 -21 43 -44 43c-26 0 -45 -17 -45 -42v-74
c0 -24 17 -43 45 -43zM121 537c26 0 42 19 42 42v65c0 25 -19 40 -43 40s-42 -17 -42 -40v-65c0 -25 20 -42 43 -42z" />
    <glyph glyph-name="nine.numr" unicode="&#xe41f;" horiz-adv-x="240" 
d="M118 308c-51 0 -81 32 -81 78v33h40v-29c0 -28 17 -45 44 -45s42 21 42 49v105c-15 -20 -40 -30 -61 -30c-41 0 -68 27 -68 69v98c0 52 36 83 87 83c53 0 85 -34 85 -85v-234c0 -60 -38 -92 -88 -92zM116 501c23 0 46 22 47 47v90c0 22 -14 46 -45 46
c-30 0 -42 -25 -42 -47v-95c0 -27 18 -41 40 -41z" />
    <glyph glyph-name="parenleft.numr" unicode="&#xe423;" horiz-adv-x="138" 
d="M99 246c-39 68 -58 173 -58 253c0 83 19 179 58 249l26 -2c-28 -87 -45 -141 -45 -248c0 -88 17 -170 45 -249z" />
    <glyph glyph-name="parenright.numr" unicode="&#xe424;" horiz-adv-x="138" 
d="M42 246l-27 3c28 79 45 161 45 249c0 107 -17 161 -45 248l27 2c38 -70 57 -166 57 -249c0 -80 -19 -185 -57 -253z" />
    <glyph glyph-name="period.numr" unicode="&#xe422;" horiz-adv-x="119" 
d="M38 318v73h43v-73h-43z" />
    <glyph glyph-name="comma.numr" unicode="&#xe421;" horiz-adv-x="119" 
d="M40 250l14 69h-16v72h43v-70l-17 -71h-24z" />
    <glyph glyph-name="I.alt" unicode="&#xe131;" horiz-adv-x="320" 
d="M41 0v46h93v621h-93v46h238v-46h-93v-621h93v-46h-238z" />
    <glyph glyph-name="I.alt" unicode="&#xe488;" horiz-adv-x="320" 
d="M41 0v46h93v621h-93v46h238v-46h-93v-621h93v-46h-238z" />
    <glyph glyph-name="Iacute.alt" unicode="&#xe133;" horiz-adv-x="320" 
d="M140 773l69 139h60l-87 -139h-42zM41 0v46h93v621h-93v46h238v-46h-93v-621h93v-46h-238z" />
    <glyph glyph-name="Icircumflex.alt" unicode="&#xe134;" horiz-adv-x="320" 
d="M72 774l70 139h40l68 -139h-47l-43 93l-43 -93h-45zM41 0v46h93v621h-93v46h238v-46h-93v-621h93v-46h-238z" />
    <glyph glyph-name="Itilde.alt" unicode="&#xe136;" horiz-adv-x="320" 
d="M78 784l-35 5c5 41 28 75 66 75c35 0 70 -28 104 -28c19 0 26 13 32 35l34 -7c-5 -41 -30 -74 -66 -74c-37 0 -76 29 -104 29c-20 0 -26 -12 -31 -35zM41 0v46h93v621h-93v46h238v-46h-93v-621h93v-46h-238z" />
    <glyph glyph-name="Igrave.alt" unicode="&#xe132;" horiz-adv-x="320" 
d="M142 773l-87 139h60l69 -139h-42zM41 0v46h93v621h-93v46h238v-46h-93v-621h93v-46h-238z" />
    <glyph glyph-name="Idieresis.alt" unicode="&#xe135;" horiz-adv-x="320" 
d="M79 791v109h48v-109h-48zM195 791v109h48v-109h-48zM41 0v46h93v621h-93v46h238v-46h-93v-621h93v-46h-238z" />
    <glyph glyph-name="Imacron.alt" unicode="&#xe138;" horiz-adv-x="320" 
d="M73 792v46h176v-46h-176zM41 0v46h93v621h-93v46h238v-46h-93v-621h93v-46h-238z" />
    <glyph glyph-name="Ibreve.alt" unicode="&#xe139;" horiz-adv-x="320" 
d="M161 778c-66 0 -102 42 -103 113h41c4 -37 14 -76 65 -76c42 0 60 33 60 76h40c-3 -77 -47 -113 -103 -113zM41 0v46h93v621h-93v46h238v-46h-93v-621h93v-46h-238z" />
    <glyph glyph-name="Iogonek.alt" unicode="&#xe13e;" horiz-adv-x="320" 
d="M41 0v46h93v621h-93v46h238v-46h-93v-621h93v-46h-9c-26 -21 -42 -51 -42 -87c0 -30 12 -48 37 -48c9 0 19 3 29 8l14 -36c-13 -8 -29 -15 -50 -15c-41 0 -72 23 -72 73c0 45 20 81 45 105h-190z" />
    <glyph glyph-name="IJ.alt" horiz-adv-x="657" 
d="M451 -10c-92 0 -141 55 -141 142v128h51v-122c0 -51 19 -101 92 -101c69 0 90 48 90 100v576h52v-573c0 -87 -48 -150 -144 -150zM41 0v46h97v621h-97v46h246v-46h-97v-621h97v-46h-246z" />
    <glyph glyph-name="Idotaccent.alt" unicode="&#xe13c;" horiz-adv-x="320" 
d="M136 791v111h49v-111h-49zM41 0v46h93v621h-93v46h238v-46h-93v-621h93v-46h-238z" />
    <glyph glyph-name="triagup" unicode="&#x25b2;" horiz-adv-x="385" 
d="M40 212v6l146 288h6l153 -288v-6h-305z" />
    <glyph glyph-name="triagdn" unicode="&#x25bc;" horiz-adv-x="385" 
d="M193 212l-153 287v7h305v-7l-146 -287h-6z" />
    <glyph glyph-name="triaglf" unicode="&#x25c4;" horiz-adv-x="385" 
d="M332 206l-287 146v6l287 153h7v-305h-7z" />
    <glyph glyph-name="triagrt" unicode="&#x25ba;" horiz-adv-x="385" 
d="M45 206v305h7l287 -153v-6l-287 -146h-7z" />
    </font>
</defs>
</svg>
